<?xml version="1.0" encoding="UTF-8"?>
<svg id="Camada_2" data-name="Camada 2" xmlns="http://www.w3.org/2000/svg" viewBox="0 0 422.44 379.95">
  <defs>
    <style>
      .cls-1 {
        fill: #b8ddd5;
      }

      .cls-1, .cls-2, .cls-3, .cls-4, .cls-5, .cls-6, .cls-7, .cls-8, .cls-9, .cls-10 {
        stroke-width: 0px;
      }

      .cls-1, .cls-2, .cls-3, .cls-5, .cls-6, .cls-7, .cls-8, .cls-9, .cls-10 {
        fill-rule: evenodd;
      }

      .cls-2 {
        fill: #8ac8b9;
      }

      .cls-3 {
        fill: #473c70;
      }

      .cls-4 {
        fill: #3d4784;
      }

      .cls-5 {
        fill: #575387;
      }

      .cls-6 {
        fill: #fff;
      }

      .cls-7 {
        fill: #797590;
      }

      .cls-8 {
        fill: #438087;
      }

      .cls-9 {
        fill: #7e91bc;
      }

      .cls-10 {
        fill: #b0bcd6;
      }
    </style>
  </defs>
  <g id="Camada_1-2" data-name="Camada 1">
    <g id="Mundo">
      <path class="cls-5" d="m218.77,100.2S123.29,36.72,68.53,0C-11.71,86.97-44.26,261.36,99.38,379.95l128.14-164.55-8.75-115.2Z"/>
      <circle class="cls-4" cx="263.5" cy="177.82" r="158.94"/>
      <path class="cls-8" d="m395.95,177.82c0-17.98-16.99-17.81-17.44-29.16.93-5.37,23.47-2.85,25.78-13.57.06-.24,5.98-4.29,8.76-11.22-8.42-23.34-22.15-44.15-39.74-60.96-6.33,2.75-5.38-4.89-12.52-10.29-10.77-7.85-31.16-11.38-40.89.02-21.92,25.69-32.56,6.63-33.65,40.17-.73,22.32,19.93,5.01,24.63,14.78,9.46,19.66,34.69,5.68,27.73,24.8-15.93,8.89-51.71-9.23-58.02,16.75-2.75,11.31-15.41,22.34-10.02,31.28,4.45,7.39,15.56,26.48,36.72,28.55,18.2,1.78,11.18,47.67,15.06,61.36,2.94,10.36,31.32,14.52,33.61,6.13,14.18-52.13,40-31.69,40-98.63Z"/>
      <path class="cls-9" d="m376.87,149.19c0-50.81-26.23-95.78-66.48-123.28-14.82-4.57-30.56-7.03-46.88-7.03-87.78,0-158.94,71.16-158.94,158.94,0,40.86,15.42,78.11,40.75,106.26,21.76,10.66,46.43,16.68,72.57,16.68,87.8,0,158.98-67.86,158.98-151.57Z"/>
      <path class="cls-2" d="m376.87,149.19c0-40.07-16.32-76.5-42.95-103.6-5.44.68-10.45,2.85-14.03,7.04-21.92,25.69-32.56,6.63-33.65,40.17-.73,22.32,19.93,5.01,24.63,14.78,9.46,19.66,34.69,5.68,27.73,24.8-15.93,8.89-51.71-9.23-58.02,16.75-2.75,11.31-15.41,22.34-10.02,31.28,4.45,7.39,15.56,26.48,36.72,28.55,16.06,1.57,12.48,37.47,14.09,55.3,33.98-27.8,55.51-69.03,55.51-115.06Z"/>
      <path class="cls-8" d="m220.33,300.73s34.55,55.02,33.07-3.77-33.07,3.77-33.07,3.77Z"/>
      <path class="cls-2" d="m239.95,211.76c-18.44,1.6-25-16.2-30.11-16.74-9.24-.98-16.11,10.68-24.33,7.94-.31-.91-20.92-6.33-22.22-6.64-7.81-1.9-14.45-19.06-10.43-24.87,5.26-7.6,12.5-22.49,19.4-25.36,21.39-8.85,41.52-25.33,55.23-33.63,1.58-4.57,4.23-16.44-.52-20-5.88-4.43-16.81-15.74-28.89-13.07-12.08,2.67-12.32,5.72-14.81,4.8-5.42-2,1.19-9.08,3.73-12.53,4.52-6.1,16.67-6.88,18.75-12.37,3.48-9.13-11.33-17.22-16.52-22.02-45.26,23.97-77.57,69.19-83.63,122.38.26,1.24,5.58,13.88,8.04,18.88,4.33,8.85,44.08,26.14,48.58,30.45,5.32,5.08,19.58-.54,19.52-.49-7.91,5.62-3.97,18.15-7.63,23.68-4.51,6.77-5.35,8.22-3.54,22.95,1.82,14.73,17.86,18.51,22.38,19.16,8.49,1.25,21.51,16.62,27.38,26.44,11.35-.16,22.42-1.45,33.07-3.77.3-2.6.77-5.25,1.48-7.95-1.22-1.97,9.04-7.36,11.5-23.2,1.77-11.42,5.46-9.88,12.3-19.57,5.93-8.39.15-9.57-5.04-21.18-3.43-7.67-12.18-10.52-33.68-13.31Z"/>
      <path class="cls-2" d="m286.84,20.59c-7.62-1.12-15.41-1.71-23.34-1.71-15.38,0-30.26,2.18-44.32,6.27-2.28,2.77-12.88,11.94,1.82,20.49,14.7,8.56,20.3,40.32,31.78,34.05,11.48-6.27.55-3.53,21.31-20.22,20.76-16.7,14.27-37.37,12.76-38.88Z"/>
      <path class="cls-10" d="m218.77,100.2l-61.38-40.69c-32.42,29.1-52.82,71.32-52.82,118.31,0,40.86,15.42,78.11,40.75,106.26,7.07,3.47,14.46,6.43,22.1,8.87l60.09-77.55-8.75-115.2Z"/>
      <path class="cls-1" d="m227.05,209.35c-9.09-4.6-13.53-13.95-17.21-14.33-9.24-.98-16.11,10.68-24.33,7.94-.31-.91-20.92-6.33-22.22-6.64-7.81-1.9-14.45-19.06-10.43-24.87,5.26-7.6,12.5-22.49,19.4-25.36,17.8-7.37,34.72-20.01,47.8-28.83l-1.3-17.07-28.14-18.65c-4.92,1.87-5.55,3.32-7.37,2.64-3.38-1.25-2.09-4.46-.02-7.54l-25.86-17.14c-28.18,25.29-47.28,60.5-51.79,100.14.26,1.24,5.58,13.88,8.04,18.88,4.33,8.85,44.08,26.14,48.58,30.45,5.32,5.08,19.58-.54,19.52-.49-7.91,5.62-3.97,18.15-7.63,23.68-4.51,6.77-5.35,8.22-3.54,22.95,1.11,8.99,7.52,13.9,13.38,16.51l43.58-56.24-.46-6.05Z"/>
      <path class="cls-7" d="m239.95,128.43c0-19.61-19.09-31.54-38.7-31.54s-35.51,15.9-35.51,35.51c0,12.92,6.9,24.22,17.21,30.43l-6.76,42.14c-.29,5.88,3.91,10.87,9.39,11.14l33.12.16c5.48.27,3.96-3.09,4.25-8.97l-5.46-43.32c11.44-5.9,22.46-21.79,22.46-35.55Z"/>
      <path class="cls-6" d="m242.71,132.72c0-18.36-14.89-33.25-33.25-33.25s-33.25,14.89-33.25,33.25c0,11.79,6.14,22.14,15.39,28.04l-4.93,44.86c0,5.89,4.45,10.66,9.93,10.66h26.96c5.49,0,9.93-4.77,9.93-10.66l-7.76-43.91c10.13-5.7,16.97-16.54,16.97-28.99Z"/>
      <path class="cls-9" d="m161.73,299.99l5.46-7.01c-7.55-2.42-14.84-5.36-21.83-8.78,5.08,5.64,10.54,10.93,16.37,15.79Z"/>
      <path class="cls-3" d="m53.67,172.97c0-55.95,21.9-106.78,57.59-144.4-15.29-10.21-30.09-20.11-42.73-28.58C-11.71,86.97-44.26,261.36,99.38,379.95l33.37-42.86c-48.19-38.45-79.09-97.67-79.09-164.11Z"/>
    </g>
  </g>
</svg>