<?xml version="1.0" encoding="UTF-8"?>
<svg id="Camada_2" data-name="Camada 2" xmlns="http://www.w3.org/2000/svg" viewBox="0 0 635.84 527.45">
  <defs>
    <style>
      .cls-1 {
        fill: #b8ddd5;
      }

      .cls-1, .cls-2, .cls-3, .cls-4, .cls-5, .cls-6, .cls-7, .cls-8, .cls-9, .cls-10, .cls-11, .cls-12, .cls-13, .cls-14, .cls-15, .cls-16, .cls-17, .cls-18, .cls-19, .cls-20, .cls-21, .cls-22, .cls-23, .cls-24, .cls-25, .cls-26, .cls-27, .cls-28, .cls-29, .cls-30, .cls-31, .cls-32, .cls-33, .cls-34, .cls-35, .cls-36, .cls-37, .cls-38, .cls-39, .cls-40, .cls-41, .cls-42, .cls-43, .cls-44, .cls-45, .cls-46, .cls-47, .cls-48, .cls-49, .cls-50 {
        stroke-width: 0px;
      }

      .cls-1, .cls-2, .cls-3, .cls-5, .cls-6, .cls-7, .cls-8, .cls-9, .cls-12, .cls-13, .cls-14, .cls-16, .cls-17, .cls-19, .cls-20, .cls-21, .cls-22, .cls-24, .cls-25, .cls-26, .cls-27, .cls-28, .cls-29, .cls-31, .cls-32, .cls-33, .cls-35, .cls-36, .cls-38, .cls-39, .cls-40, .cls-42, .cls-45, .cls-46, .cls-47, .cls-48, .cls-49 {
        fill-rule: evenodd;
      }

      .cls-2, .cls-37 {
        fill: #22204f;
      }

      .cls-3 {
        fill: #31415a;
      }

      .cls-4, .cls-24 {
        fill: #b0684f;
      }

      .cls-5 {
        fill: #5a303c;
      }

      .cls-6, .cls-10 {
        fill: #5e1935;
      }

      .cls-7, .cls-43 {
        fill: #bcbcd8;
      }

      .cls-8 {
        fill: #537797;
      }

      .cls-9 {
        fill: #dae2ea;
      }

      .cls-11, .cls-26 {
        fill: #06091a;
      }

      .cls-12 {
        fill: #8ac8b9;
      }

      .cls-13 {
        fill: #9494b2;
      }

      .cls-14 {
        fill: #bdc6d6;
      }

      .cls-15, .cls-28 {
        fill: #51292a;
      }

      .cls-16 {
        fill: #473c70;
      }

      .cls-17, .cls-50 {
        fill: #c1595f;
      }

      .cls-18 {
        fill: #3d4784;
      }

      .cls-19 {
        fill: #575387;
      }

      .cls-20 {
        fill: #864d3c;
      }

      .cls-21 {
        fill: #496d8d;
      }

      .cls-22 {
        fill: #e77a77;
      }

      .cls-23, .cls-31 {
        fill: #fff;
      }

      .cls-25 {
        fill: #dd9f9f;
      }

      .cls-27 {
        fill: #d59139;
      }

      .cls-29, .cls-30 {
        fill: #211f45;
      }

      .cls-32 {
        fill: #ffe67d;
      }

      .cls-33 {
        fill: #8e2432;
      }

      .cls-34, .cls-48 {
        fill: #bc7373;
      }

      .cls-35 {
        fill: #797590;
      }

      .cls-36 {
        fill: #131728;
      }

      .cls-38 {
        fill: #438087;
      }

      .cls-39 {
        fill: #efc055;
      }

      .cls-40 {
        fill: #7e91bc;
      }

      .cls-41 {
        fill: #2a2359;
      }

      .cls-42 {
        fill: #171430;
      }

      .cls-44 {
        fill: #282758;
      }

      .cls-45 {
        fill: #361726;
      }

      .cls-46 {
        fill: #915c49;
      }

      .cls-47 {
        fill: #f1a085;
      }

      .cls-49 {
        fill: #b0bcd6;
      }
    </style>
  </defs>
  <g id="Camada_1-2" data-name="Camada 1">
    <g id="ForeGround">
      <circle class="cls-37" cx="372.11" cy="263.73" r="263.73"/>
      <circle class="cls-44" cx="364.51" cy="261.72" r="209.84"/>
      <g id="MeninaParteDeTras">
        <g id="Sapato">
          <rect class="cls-43" x="347.57" y="420.22" width="38" height="9.78" rx="1.69" ry="1.69"/>
        </g>
        <g id="Sapato-2" data-name="Sapato">
          <rect class="cls-43" x="408.88" y="420.55" width="38" height="9.78" rx="1.69" ry="1.69"/>
          <path class="cls-6" d="m442.98,413.89c0-2.33.15-3.89.2-7.78-4.73,1.42-22.06,5.84-27.61-2.76-.6,1.03-.56,5.21-.97,9.26-.38.2-.76.41-1.12.62-5.13,3.04-4.6,10.14-4.6,10.14h38s.68-5.34-3.91-9.48Z"/>
        </g>
        <polygon class="cls-28" points="447.26 110.49 370.08 98.41 381.49 41.6 444.05 44.73 447.26 110.49"/>
        <path class="cls-2" d="m450.78,132.43s-85.26,4.07-85.65-9.66-5.47-30.25,13.06-35.63c5.8-1.68,17.04-.07,18.56,3.5,6.5,2.02,15.89,8.47,24.44,1.96,6.16-4.69,23.18.13,27.43,5.14,7.76,9.16,2.16,34.7,2.16,34.7Z"/>
        <ellipse class="cls-23" cx="408.07" cy="92.26" rx="14.78" ry="10.17"/>
        <path class="cls-7" d="m422.85,92.26c0,5.62-6.62,10.17-14.78,10.17,10.71-8.4-8.16-20.34,0-20.34s14.78,4.55,14.78,10.17Z"/>
        <path class="cls-24" d="m418.18,91.93c-2.01,8.3-21.16,7.72-20.23-1.92s1.73-7.47-.6-11.77,23.67-7.26,20.59.75,1.35,8.36.24,12.94Z"/>
        <path class="cls-47" d="m408.32,26.89c-11.41,0-21.05,11.83-22.02,28.58-1.34,23.19,9.25,30.38,20.66,30.38,7.95,0,16.22-6.01,20.51-15.33.94,1,2.13,1.75,3.53,2.11,4.17,1.06,8.25-1.84,9.63-6.31,4.16-13.49-20.92-39.42-32.31-39.42Z"/>
        <path class="cls-29" d="m450.78,132.43s-16.41,5.99-13.52,0c11.68-24.21-8.05-37.14-4.2-41.39,6.41.98,13.11,3.8,15.55,6.69,7.76,9.16,2.16,34.7,2.16,34.7Z"/>
        <g id="RostoMenino">
          <path class="cls-45" d="m394.16,49.67c1.58.46,2.46,1.47,1.99,2.28-.51.81-2.15,1.11-3.73.65-1.58-.44-2.46-1.47-1.99-2.28.51-.81,2.15-1.11,3.73-.65Z"/>
          <path class="cls-45" d="m392.74,56.69c1.3.06,2.33,1.14,2.28,2.44-.06,1.3-1.14,2.3-2.44,2.28-1.3-.06-2.3-1.14-2.28-2.44.06-1.3,1.14-2.33,2.44-2.28Z"/>
          <path class="cls-45" d="m399.56,67.69c-.57.34-2.38-1.19-2.34-2.18.03-.98,2.25-2.44,2.49-2s-.98,1.25-1.01,2.07c-.03.8,1.43,1.77.86,2.12Z"/>
          <path class="cls-45" d="m410.04,58.23c1.3.06,2.33,1.14,2.28,2.44-.06,1.3-1.14,2.3-2.44,2.28-1.3-.06-2.3-1.14-2.28-2.44.06-1.3,1.14-2.33,2.44-2.28Z"/>
          <path class="cls-45" d="m410.83,50.86c1.58.46,2.46,1.47,1.99,2.28-.51.81-2.15,1.11-3.73.65-1.58-.44-2.46-1.47-1.99-2.28.51-.81,2.15-1.11,3.73-.65Z"/>
          <path class="cls-45" d="m433.11,63.11c1.18,0,2.14,1.02,2.14,2.27s-.96,2.27-2.14,2.27-3.9,1.1-3.9-.16,2.72-4.39,3.9-4.39Z"/>
          <path class="cls-45" d="m406.97,74.07c0,.65-3.32,2.7-6.04,2.52s-3.72-2.12-3.72-2.77,1.57.4,3.72.41,6.04-.81,6.04-.16Z"/>
        </g>
        <path class="cls-20" d="m451.36,71.14c-.75-16.8-.09-29.92-12.78-43.41-22.42-23.85-56.29-7.43-64.71,18.46-3.09,11.69-9.07,43.15-10.33,55.36,0,.08.56-.63,1.43-1.74,1.1-4.51,3.61-8.38,8.83-10.98.96-5.39,2.11-10.55,3.52-15.39,2.5-13.36,9.08-22.31,17.99-28.17,7.69-5.05,10.03-7.74,13.03-13.01.65,9.72,4.43,16.36,10.21,21.42,6.51,5.71,24.52,6.57,25.78,18.62.5,4.8,1.09,13.75,1.47,23.14,1.19.73,2.16,1.51,2.82,2.29,5.27,6.21,4.38,19.96,3.27,28.16,1.21-.27,2.28-.67,2.93-1.49-2.13-8.66-2.39-29.02-3.45-53.25Z"/>
        <path class="cls-46" d="m405.03,27.97c0,3.06-4.14,3.64-10.01,6.69-3.53,1.83-10.92,8.29-10.92,5.23s2.09-8.61,9.92-13.01c3.47-1.95,11.01-1.97,11.01,1.09Z"/>
        <rect class="cls-4" x="432.23" y="119.65" width="4.12" height="6.24"/>
      </g>
      <g id="MeninoParteTras">
        <g id="Sapato-3" data-name="Sapato">
          <path class="cls-33" d="m525.29,426.82c.51,2.82-.79,5.42-2.89,5.8s-4.52,2.63-4.74-4.42c-.09-2.87.79-5.42,2.89-5.8s4.23,1.6,4.74,4.42Z"/>
          <rect class="cls-23" x="521.39" y="418.05" width="23.89" height="16.73" transform="translate(-67.29 101.57) rotate(-10.24)"/>
          <rect class="cls-43" x="532.67" y="417.04" width="12.54" height="16.97" transform="translate(-67.04 102.55) rotate(-10.24)"/>
          <path class="cls-6" d="m554.53,435.76c4.83,3.28-14.95,3.77-17.05,1.66s-4.04-7.6,1.89-12.36,9.08-.87,9.85.69.88,7,5.31,10.01Z"/>
          <path class="cls-31" d="m566.67,445.17h-49.37c-2.14,0-3.87.67-3.87,1.49v6.8c0,.82,1.73,1.49,3.87,1.49h49.37v-9.78Z"/>
          <path class="cls-7" d="m584.7,445.17h-17.94v9.78h17.94c.3,0,.54-.67.54-1.49v-6.8c0-.82-.24-1.49-.54-1.49Z"/>
          <path class="cls-33" d="m533.94,433.09c-2.17.22-4.28.42-6.34.24-1.9-.16-4.89-6.13-6.45-5.81-8.73,2.91-7.69,21-7.69,21h31.65l-11.17-15.43Z"/>
          <path class="cls-17" d="m514.97,436.04c-.09,0-.17.01-.26.01-1.63,5.87-1.25,12.47-1.25,12.47h13.99c0-6.89-5.59-12.48-12.48-12.48Z"/>
          <path class="cls-6" d="m580.59,438.63c-5.04-2.75-25.44-1.04-31.87-4.06-5.34-2.52-10.21-1.94-14.78-1.47l7.01,13.57c.59,1.14,1.77,1.86,3.05,1.86h41.24s1.17-6.72-4.65-9.89Z"/>
          <path class="cls-7" d="m550.51,430.23c-6.48.74-10.7,5.55-10.89,5.77-.36.42-.31,1.05.11,1.41.19.16.42.24.65.24.28,0,.56-.12.76-.35.04-.05,4.19-4.74,10.23-5.13-.35-.65-.63-1.31-.85-1.94Z"/>
          <path class="cls-7" d="m544.46,440.15c.3,0,.6-.14.8-.4.03-.04,3.06-3.94,8.07-4.97-.57-.54-1.04-1.11-1.44-1.71-5.12,1.44-8.08,5.28-8.23,5.47-.33.44-.24,1.07.2,1.4.18.14.39.2.6.2Z"/>
          <path class="cls-7" d="m550.79,441.13c.16.1.34.15.52.15.34,0,.67-.17.86-.48.02-.04,2.22-3.53,7.66-4.37-1.78-.11-3.49-.25-5.05-.44-2.94,1.56-4.24,3.63-4.32,3.77-.29.47-.14,1.09.33,1.37Z"/>
        </g>
        <g id="Sapato-4" data-name="Sapato">
          <path class="cls-6" d="m443.57,445.62l-18.39-1.49c-2.59-.21-4.54-2.77-4.36-5.72l.55-8.82c.18-2.95,2.43-5.17,5.02-4.96l18.39,1.49c2.59.21,4.54,2.77,4.36,5.72l-.55,8.82c-.18,2.95-2.43,5.17-5.02,4.96Z"/>
          <polygon class="cls-7" points="447.06 437.39 423.32 437.68 425.08 412.97 448.82 412.68 447.06 437.39"/>
          <rect class="cls-43" x="414.86" y="445.71" width="38" height="9.78" rx="1.69" ry="1.69"/>
          <path class="cls-6" d="m448.96,439.04c0-2.33.15-3.89.2-7.78-4.73,1.42-22.06,5.84-27.61-2.76-.6,1.03-.56,5.21-.97,9.26-.38.2-.76.41-1.12.62-5.13,3.04-4.6,10.14-4.6,10.14h38s.68-5.34-3.91-9.48Z"/>
          <ellipse class="cls-10" cx="435.67" cy="433.27" rx="10.98" ry="9.89"/>
          <path class="cls-43" d="m443.36,436.99c-.19,0-.39-.06-.56-.17-8.77-6.01-14.49-1.15-14.73-.94-.41.36-1.04.32-1.41-.09s-.33-1.04.08-1.41c.07-.06,7.09-6.14,17.19.78.46.31.57.93.26,1.39-.19.28-.51.43-.83.43Z"/>
          <path class="cls-43" d="m445.27,440.44c-.19,0-.39-.06-.56-.17-8.95-6.14-19.46-.91-19.57-.86-.49.25-1.1.05-1.35-.44s-.06-1.09.43-1.34c.47-.24,11.66-5.83,21.61.99.46.31.57.93.26,1.39-.19.28-.51.43-.83.43Z"/>
        </g>
        <path class="cls-39" d="m492.95,96.12s-27.1-15.76-51.19,29.94,74.74,94.54,74.74,94.54c6.24-17.85,29.93-18.66,36.17-36.51,5.31-15.19-6.83-47.44-1.52-62.64-19.4-8.44-38.79-16.89-58.19-25.33Z"/>
        <path class="cls-27" d="m470.96,119.82c1.25-6.08-17.74,23.99-17.74,23.99l15.42,8.45s-1.45-14.13,2.33-32.44Z"/>
        <path class="cls-26" d="m515.38,88.56c-8.5,0-16.29,2.83-22.43,7.56-.25,7.03,3.04,18.53,3.05,18.54,4.25,13.36-8.78,36.91-8.6,40.08.62,2.3,3.38,3.14,4.93,3.02,1.55-.12,17.58-23.25,28.82-24.08s23.82-4.81,30-12.24c-.73-18.28-16.45-32.89-35.76-32.89Z"/>
        <rect class="cls-11" x="540.73" y="71.85" width="17.44" height="23.48" rx="8.72" ry="8.72" transform="translate(160.25 -313.15) rotate(36.9)"/>
        <path class="cls-45" d="m507.29,109.4c.18,5.19,1.35,9.78,4.28,13.28,8.2,1.09,22.36-9.29,23.62-16.63.36-2.03-1.9-3.22.55-8.14-4.87,1.81-14.82,2.94-22.41-2.62-5.28,5.93-6.05,9.39-6.04,14.11h0Z"/>
        <path class="cls-22" d="m544.24,416.49l-36.64,6.73c-.7.13-1.37-.35-1.49-1.05l-28.77-180.08,36.83-17.11s30.24,190.95,30.28,191.14,0,.34-.21.37Z"/>
        <path class="cls-17" d="m544.24,416.49l-13.34,2.45c-.7.13-1.37-.35-1.49-1.05l-30.57-180.14,15.33-12.78s30.24,190.95,30.28,191.14,0,.34-.21.37Z"/>
        <rect class="cls-11" x="503.77" y="56.95" width="17.44" height="23.48" rx="8.72" ry="8.72" transform="translate(8.09 -45.08) rotate(5.08)"/>
        <path class="cls-5" d="m560.82,64.56c-.82-.23-1.65-.31-2.47-.29-5.54-11.82-31.44-22.45-42.34-16.74-.67-.43-1.39-.77-2.18-.99-4.95-1.39-10.29,2.21-11.92,8.04-1.59,5.67.92,11.34,5.61,12.93-2.22,13.8-.09,28.3,12.27,32.57,12.69,4.38,24.05-4.11,31.87-15.28.88.72,1.89,1.28,3.03,1.59,5.12,1.43,10.64-2.29,12.33-8.32,1.69-6.03-1.09-12.08-6.21-13.52Z"/>
        <path class="cls-26" d="m572.88,57.94c-.81-6.46-6.92-13.65-13.84-14.63-.38-4.94-3.94-9.42-9.2-10.9-1.06-.3-2.12-.44-3.17-.47-1.77-7.47-10.68-18.38-23.44-18.38s-21.82,8.05-21.82,19.36c0,6.23,2.64,12.14,7.2,16.19l-.66,9.31c-.18,2.48.25,3.35,1.61,3.53,1.24.17,1.34-1.76,1.92-3.92l1.83-6.19c2.51.98,6.9,2.67,9.93,2.67,2.39,0,4.71-.31,6.91-.87,1.45,3.54,5.72,6.11,10.76,6.11,1.03,0,2.02-.12,2.97-.32.38,4.07,2.3,7.64,5.12,10.05-.02.06-.04.1-.06.16l-1.66,7.33c-.43,1.92.64,3.86,2.5,4.5,1.7.59,3.58-.06,4.54-1.59l3.91-6.2c.21-.33.34-.69.44-1.05,7.3-.28,15.64-3.28,14.21-14.72Z"/>
        <path class="cls-36" d="m513.01,34.67c3.32,0,5.83-11.35,13.02-11.35,4.07,0,8.88,1.29,9.82-.22s-5.63-6.68-12.03-6.68c-6.83,0-12.83,4.39-13.39,11.2-.41,5.03,1.02,7.05,2.58,7.05Z"/>
        <g>
          <path class="cls-26" d="m514.07,57.52c1.12-1.76,6.21-1.87,8.95,1.31,2.13,2.5,2.3,4.21-.65,4.66-3.23.48-12.09-1.71-8.3-5.97Z"/>
          <ellipse class="cls-11" cx="532.97" cy="76.7" rx="2.14" ry="2.27"/>
          <path class="cls-26" d="m543.48,72.78c.79-1.93-2.05-6.15-6.23-6.56-3.27-.3-4.76.55-3.43,3.22,1.47,2.92,8.37,8.89,9.66,3.34Z"/>
          <ellipse class="cls-11" cx="517.12" cy="69.38" rx="2.14" ry="2.27"/>
          <path class="cls-26" d="m560.36,76.32c1.18,0,2.14,1.02,2.14,2.27s-.96,2.27-2.14,2.27-3.9,1.1-3.9-.16,2.72-4.39,3.9-4.39Z"/>
          <path class="cls-26" d="m506.76,53.55c-.85-.82-2.25-.76-3.12.14s-.89,2.3-.05,3.12,2.04,3.5,2.91,2.6,1.11-5.04.26-5.86Z"/>
          <path class="cls-26" d="m530.83,88.1c0,1.02-4.7,4.22-8.53,3.93-3.84-.29-5.25-3.31-5.25-4.33s2.21.62,5.25.64,8.53-1.26,8.53-.24Z"/>
          <path class="cls-26" d="m527.05,81.55c-.15.8-2.25,2.29-5.2,1.51s-3.91-3.45-3.48-4.14c.64-1.02,1.76,1.99,4.13,2.44s4.69-.61,4.55.19Z"/>
        </g>
        <rect class="cls-11" x="504.47" y="149.66" width="32.21" height="13.14" rx="2.51" ry="2.51" transform="translate(92.02 -178.06) rotate(21.25)"/>
        <rect class="cls-50" x="417.77" y="384.08" width="40.02" height="35.91" rx="1.92" ry="1.92" transform="translate(25.78 -26.38) rotate(3.56)"/>
        <path class="cls-27" d="m550.98,200.08c-25.57,9.6-55.28-2.48-47.95-14.45,6.71-10.95,33.96,2.19,42.15-35.72,2.28-13.79,31.37,40.57,5.8,50.17Z"/>
      </g>
      <g id="Mundo">
        <path class="cls-19" d="m321.65,188.43s-95.47-63.47-150.24-100.2c-80.24,86.97-112.79,261.36,30.85,379.95l128.14-164.55-8.75-115.2Z"/>
        <circle class="cls-18" cx="366.38" cy="266.06" r="158.94"/>
        <path class="cls-38" d="m498.83,266.06c0-17.98-16.99-17.81-17.44-29.16.93-5.37,23.47-2.85,25.78-13.57.06-.24,5.98-4.29,8.76-11.22-8.42-23.34-22.15-44.15-39.74-60.96-6.33,2.75-5.38-4.89-12.52-10.29-10.77-7.85-31.16-11.38-40.89.02-21.92,25.69-32.56,6.63-33.65,40.17-.73,22.32,19.93,5.01,24.63,14.78,9.46,19.66,34.69,5.68,27.73,24.8-15.93,8.89-51.71-9.23-58.02,16.75-2.75,11.31-15.41,22.34-10.02,31.28,4.45,7.39,15.56,26.48,36.72,28.55,18.2,1.78,11.18,47.67,15.06,61.36,2.94,10.36,31.32,14.52,33.61,6.13,14.18-52.13,40-31.69,40-98.63Z"/>
        <path class="cls-40" d="m479.75,237.43c0-50.81-26.23-95.78-66.48-123.28-14.82-4.57-30.56-7.03-46.88-7.03-87.78,0-158.94,71.16-158.94,158.94,0,40.86,15.42,78.11,40.75,106.26,21.76,10.66,46.43,16.68,72.57,16.68,87.8,0,158.98-67.86,158.98-151.57Z"/>
        <path class="cls-12" d="m479.75,237.43c0-40.07-16.32-76.5-42.95-103.6-5.44.68-10.45,2.85-14.03,7.04-21.92,25.69-32.56,6.63-33.65,40.17-.73,22.32,19.93,5.01,24.63,14.78,9.46,19.66,34.69,5.68,27.73,24.8-15.93,8.89-51.71-9.23-58.02,16.75-2.75,11.31-15.41,22.34-10.02,31.28,4.45,7.39,15.56,26.48,36.72,28.55,16.06,1.57,12.48,37.47,14.09,55.3,33.98-27.8,55.51-69.03,55.51-115.06Z"/>
        <path class="cls-38" d="m323.21,388.97s34.55,55.02,33.07-3.77-33.07,3.77-33.07,3.77Z"/>
        <path class="cls-12" d="m342.83,300c-18.44,1.6-25-16.2-30.11-16.74-9.24-.98-16.11,10.68-24.33,7.94-.31-.91-20.92-6.33-22.22-6.64-7.81-1.9-14.45-19.06-10.43-24.87,5.26-7.6,12.5-22.49,19.4-25.36,21.39-8.85,41.52-25.33,55.23-33.63,1.58-4.57,4.23-16.44-.52-20-5.88-4.43-16.81-15.74-28.89-13.07-12.08,2.67-12.32,5.72-14.81,4.8-5.42-2,1.19-9.08,3.73-12.53,4.52-6.1,16.67-6.88,18.75-12.37,3.48-9.13-11.33-17.22-16.52-22.02-45.26,23.97-77.57,69.19-83.63,122.38.26,1.24,5.58,13.88,8.04,18.88,4.33,8.85,44.08,26.14,48.58,30.45,5.32,5.08,19.58-.54,19.52-.49-7.91,5.62-3.97,18.15-7.63,23.68-4.51,6.77-5.35,8.22-3.54,22.95,1.82,14.73,17.86,18.51,22.38,19.16,8.49,1.25,21.51,16.62,27.38,26.44,11.35-.16,22.42-1.45,33.07-3.77.3-2.6.77-5.25,1.48-7.95-1.22-1.97,9.04-7.36,11.5-23.2,1.77-11.42,5.46-9.88,12.3-19.57,5.93-8.39.15-9.57-5.04-21.18-3.43-7.67-12.18-10.52-33.68-13.31Z"/>
        <path class="cls-12" d="m389.72,108.83c-7.62-1.12-15.41-1.71-23.34-1.71-15.38,0-30.26,2.18-44.32,6.27-2.28,2.77-12.88,11.94,1.82,20.49,14.7,8.56,20.3,40.32,31.78,34.05,11.48-6.27.55-3.53,21.31-20.22,20.76-16.7,14.27-37.37,12.76-38.88Z"/>
        <path class="cls-49" d="m321.65,188.43l-61.38-40.69c-32.42,29.1-52.82,71.32-52.82,118.31,0,40.86,15.42,78.11,40.75,106.26,7.07,3.47,14.46,6.43,22.1,8.87l60.09-77.55-8.75-115.2Z"/>
        <path class="cls-1" d="m329.93,297.59c-9.09-4.6-13.53-13.95-17.21-14.33-9.24-.98-16.11,10.68-24.33,7.94-.31-.91-20.92-6.33-22.22-6.64-7.81-1.9-14.45-19.06-10.43-24.87,5.26-7.6,12.5-22.49,19.4-25.36,17.8-7.37,34.72-20.01,47.8-28.83l-1.3-17.07-28.14-18.65c-4.92,1.87-5.55,3.32-7.37,2.64-3.38-1.25-2.09-4.46-.02-7.54l-25.86-17.14c-28.18,25.29-47.28,60.5-51.79,100.14.26,1.24,5.58,13.88,8.04,18.88,4.33,8.85,44.08,26.14,48.58,30.45,5.32,5.08,19.58-.54,19.52-.49-7.91,5.62-3.97,18.15-7.63,23.68-4.51,6.77-5.35,8.22-3.54,22.95,1.11,8.99,7.52,13.9,13.38,16.51l43.58-56.24-.46-6.05Z"/>
        <path class="cls-35" d="m342.83,216.67c0-19.61-19.09-31.54-38.7-31.54s-35.51,15.9-35.51,35.51c0,12.92,6.9,24.22,17.21,30.43l-6.76,42.14c-.29,5.88,3.91,10.87,9.39,11.14l33.12.16c5.48.27,3.96-3.09,4.25-8.97l-5.46-43.32c11.44-5.9,22.46-21.79,22.46-35.55Z"/>
        <path class="cls-31" d="m345.59,220.95c0-18.36-14.89-33.25-33.25-33.25s-33.25,14.89-33.25,33.25c0,11.79,6.14,22.14,15.39,28.04l-4.93,44.86c0,5.89,4.45,10.66,9.93,10.66h26.96c5.49,0,9.93-4.77,9.93-10.66l-7.76-43.91c10.13-5.7,16.97-16.54,16.97-28.99Z"/>
        <path class="cls-40" d="m264.61,388.23l5.46-7.01c-7.55-2.42-14.84-5.36-21.83-8.78,5.08,5.64,10.54,10.93,16.37,15.79Z"/>
        <path class="cls-16" d="m156.55,261.21c0-55.95,21.9-106.78,57.59-144.4-15.29-10.21-30.09-20.11-42.73-28.58-80.24,86.97-112.79,261.36,30.85,379.95l33.37-42.86c-48.19-38.45-79.09-97.67-79.09-164.11Z"/>
      </g>
      <g id="PessoasParteFrente">
        <path class="cls-5" d="m503.59,187.73c-5.31-3.16-19.19-17.07-37.3-12.71-4.07,1.37-3.18,4.47-1.48,5.21-3.32,2.42-5.8,6.42-6.87,10.7-1.56,6.23,3.85,8.41,8.96,7.42,5.86-1.14,8.48-2.07,16.48.3,8.57,2.54,8.01-3.36,14.91,2.16,0,0,4.25-8.16,5.3-13.07Z"/>
        <path class="cls-5" d="m465.48,137.59c1.66,3.58-.71,7.16-3.97,4.02-2.67-2.56-4.57-1.29-7.73.62-4.17,2.49-10.54,8.59-16.06,6.22-4.36-1.63-1.84-14.76-.67-18.16,2.95-8.58,6.44-8.48,13.07-7.12s12.84,7.74,15.36,14.43Z"/>
        <path class="cls-39" d="m551.13,121.45s18.44.25,24.37,38.64,14.52,61.1-12.19,70.7c-26.7,9.6-66.27-7.27-64.39-21.19,3.83-7.08,8.79-15.37,11.32-20.99,7.52-1.94,14.36-4.92,23.15-3.81,10.29,1.3,14.17-14.81,12.02-26.62-2.15-11.81,5.72-36.73,5.72-36.73Z"/>
        <path class="cls-27" d="m575.52,160.08c5.93,38.38,14.52,61.1-12.19,70.7-26.7,9.6-66.74-5.04-64.39-21.19,1.9,1.19,3.65-21.55,13.53-21.6-16.6,45.24,48.96,31.81,56.14,17.04,7.16-15.14,4.43-33.95,6.91-44.95Z"/>
        <path class="cls-26" d="m498.93,209.59s-6.21-3.47-6.94-5.72,8.52-18.35,10.66-18.73,7.76,3.46,7.76,3.46c-1.79,7.64-5.86,14.57-11.48,20.99Z"/>
        <path class="cls-47" d="m374.93,106.14c2.26,2.56,1.17,6.11-2.31,4.31-2.84-1.46-4.11.06-6.26,2.41-2.85,3.09-6.63,9.71-11.8,9.1-4.02-.28-5.55-8.24-5.01-14.91.44-4.38,2.7-6.92,8.54-7.42s13.12,1.57,16.84,6.5Z"/>
        <path class="cls-47" d="m435.37,117.83c2.26,2.56.24,3.45-2.31,4.31-3.42.97-4.29,1.39-6.44,3.75-2.85,3.09-6.46,8.38-11.63,7.77-4.02-.28-5.55-8.24-5.01-14.91.44-4.38,2.7-6.92,8.54-7.42s13.12,1.57,16.84,6.5Z"/>
      </g>
      <g id="Menino">
        <path class="cls-2" d="m194.56,461.57c2.52,2.21,5.09,4.41,7.73,6.59l5.13-6.59h-12.86Z"/>
        <rect class="cls-41" x="136.37" y="350.71" width="36" height="82.3" transform="translate(-126.32 77.86) rotate(-20.29)"/>
        <g>
          <path class="cls-27" d="m172.66,433.44c.51,2.82-.79,5.42-2.89,5.8s-4.52,2.63-4.74-4.42c-.09-2.87.79-5.42,2.89-5.8s4.23,1.6,4.74,4.42Z"/>
          <rect class="cls-43" x="166.96" y="406.47" width="23.89" height="34.68" transform="translate(-121.86 75.73) rotate(-17.94)"/>
          <rect class="cls-23" x="178.11" y="404.71" width="12.54" height="35.19" transform="translate(-121.13 77.34) rotate(-17.94)"/>
          <path class="cls-39" d="m201.89,442.38c4.83,3.28-14.95,3.77-17.05,1.66s-4.04-7.6,1.89-12.36,9.08-.87,9.85.69.88,7,5.31,10.01Z"/>
          <path class="cls-7" d="m214.03,451.79h-49.37c-2.14,0-3.87.67-3.87,1.49v6.8c0,.82,1.73,1.49,3.87,1.49h49.37v-9.78Z"/>
          <path class="cls-31" d="m232.06,451.79h-17.94v9.78h17.94c.3,0,.54-.67.54-1.49v-6.8c0-.82-.24-1.49-.54-1.49Z"/>
          <path class="cls-27" d="m181.31,439.71c-2.17.22-4.28.42-6.34.24-1.9-.16-4.89-6.13-6.45-5.81-8.73,2.91-7.69,21-7.69,21h31.65l-11.17-15.43Z"/>
          <path class="cls-39" d="m227.95,445.25c-5.04-2.75-25.44-1.04-31.87-4.06-5.34-2.52-10.21-1.94-14.78-1.47l7.01,13.57c.59,1.14,1.77,1.86,3.05,1.86h41.24s1.17-6.72-4.65-9.89Z"/>
          <path class="cls-31" d="m197.87,436.85c-6.48.74-10.7,5.55-10.89,5.77-.36.42-.31,1.05.11,1.41.19.16.42.24.65.24.28,0,.56-.12.76-.35.04-.05,4.19-4.74,10.23-5.13-.35-.65-.63-1.31-.85-1.94Z"/>
          <path class="cls-31" d="m191.83,446.77c.3,0,.6-.14.8-.4.03-.04,3.06-3.94,8.07-4.97-.57-.54-1.04-1.11-1.44-1.71-5.12,1.44-8.08,5.28-8.23,5.47-.33.44-.24,1.07.2,1.4.18.14.39.2.6.2Z"/>
          <path class="cls-31" d="m198.16,447.75c.16.1.34.15.52.15.34,0,.67-.17.86-.48.02-.04,2.22-3.53,7.66-4.37-1.78-.11-3.49-.25-5.05-.44-2.94,1.56-4.24,3.63-4.32,3.77-.29.47-.14,1.09.33,1.37Z"/>
        </g>
        <g>
          <path class="cls-27" d="m110.47,444.64c.51,2.82-.79,5.42-2.89,5.8s-4.52,2.63-4.74-4.42c-.09-2.87.79-5.42,2.89-5.8s4.23,1.6,4.74,4.42Z"/>
          <rect class="cls-43" x="106.25" y="417.65" width="23.89" height="34.68"/>
          <rect class="cls-23" x="117.59" y="417.65" width="12.54" height="35.19"/>
          <path class="cls-39" d="m139.71,453.57c4.83,3.28-14.95,3.77-17.05,1.66s-4.04-7.6,1.89-12.36,9.08-.87,9.85.69.88,7,5.31,10.01Z"/>
          <path class="cls-7" d="m151.85,462.99h-49.37c-2.14,0-3.87.67-3.87,1.49v6.8c0,.82,1.73,1.49,3.87,1.49h49.37v-9.78Z"/>
          <path class="cls-31" d="m169.88,462.99h-17.94v9.78h17.94c.3,0,.54-.67.54-1.49v-6.8c0-.82-.24-1.49-.54-1.49Z"/>
          <path class="cls-27" d="m119.12,450.91c-2.17.22-4.28.42-6.34.24-1.9-.16-4.89-6.13-6.45-5.81-8.73,2.91-7.69,21-7.69,21h31.65l-11.17-15.43Z"/>
          <path class="cls-39" d="m165.77,456.45c-5.04-2.75-25.44-1.04-31.87-4.06-5.34-2.52-10.21-1.94-14.78-1.47l7.01,13.57c.59,1.14,1.77,1.86,3.05,1.86h41.24s1.17-6.72-4.65-9.89Z"/>
          <path class="cls-31" d="m135.69,448.05c-6.48.74-10.7,5.55-10.89,5.77-.36.42-.31,1.05.11,1.41.19.16.42.24.65.24.28,0,.56-.12.76-.35.04-.05,4.19-4.74,10.23-5.13-.35-.65-.63-1.31-.85-1.94Z"/>
          <path class="cls-31" d="m129.65,457.96c.3,0,.6-.14.8-.4.03-.04,3.06-3.94,8.07-4.97-.57-.54-1.04-1.11-1.44-1.71-5.12,1.44-8.08,5.28-8.23,5.47-.33.44-.24,1.07.2,1.4.18.14.39.2.6.2Z"/>
          <path class="cls-31" d="m135.97,458.95c.16.1.34.15.52.15.34,0,.67-.17.86-.48.02-.04,2.22-3.53,7.66-4.37-1.78-.11-3.49-.25-5.05-.44-2.94,1.56-4.24,3.63-4.32,3.77-.29.47-.14,1.09.33,1.37Z"/>
        </g>
        <path class="cls-2" d="m175.51,128.97l15.98-27.68c-7.02-4.7-12.14-10.58-18.32-14.73-7.45,6.9-15.16,17.17-21.32,25.95l23.67,16.45Z"/>
        <rect class="cls-30" x="104.42" y="157.12" width="39.15" height="36.91"/>
        <path class="cls-3" d="m118.72,208.21l9.38-19.69c-14,1.43-28.81,5.05-41.38,8.89,6.67,2.9,4.79,12.22,9.78,17.35,4.28-.67,22.22-6.54,22.22-6.54Z"/>
        <path class="cls-27" d="m.51,269.07c-4.51-36.63,21.54-70.01,58.17-74.52,28.36-3.49,54.83,11.3,67.33,35.15l161.06-19.85c12.98-1.6,24.85,7.67,26.45,20.64h0c1.6,12.98-7.67,24.85-20.64,26.45l-21.24,2.62,4.06,32.96-47.09,5.8-4.06-32.96-92.72,11.43c-6.34,26.17-28.42,46.95-56.78,50.45-36.63,4.51-70.01-21.54-74.52-58.17h0Zm63.45-31.72c13.08-1.61,24.85,7.67,26.45,20.64s-7.56,24.84-20.64,26.45c-12.98,1.6-24.85-7.67-26.45-20.64s7.67-24.85,20.64-26.45Z"/>
        <path class="cls-32" d="m313.52,230.49c-1.6-12.98-13.47-22.24-26.45-20.64l-117.92,14.53v47.81l55.39-6.83,4.06,32.96,47.09-5.8-4.06-32.96,21.24-2.62c12.98-1.6,22.24-13.47,20.64-26.45Z"/>
        <path class="cls-39" d="m175.79,147.56c-12.23,13.16-6.73,27.84-14.69,32.7s-22.72-2.3-29.7-6.54-8.07-17.81-8.62-22.3c-2.98-17.64-1.43-32.32,10.29-40.36,14.59-10.02,30.6-6.37,46.14-4.03,6.5.96,9.43,1.38,10.82-4.49.23-.98,1.53-1.22,2.12-.39,4.7,6.63,4.58,38.74-16.36,45.42h0Z"/>
        <path class="cls-27" d="m161.1,180.26c-7.95,4.85-21.92-1.27-30.28-6.13-7.81-4.54-8.46-25.53-9.02-30.01,18.65,21.55,47.24,31.3,39.29,36.15Z"/>
        <path class="cls-29" d="m188.33,408.82l-25.66,8.46c-1.02.33-2.11-.22-2.45-1.23l-39.41-119.54c-.37-1.13.35-2.33,1.53-2.52l39.14-6.33c1.01-.16,1.98.49,2.2,1.49l25.93,117.42c.21.97-.34,1.95-1.29,2.26Z"/>
        <path class="cls-42" d="m146.77,333.15l-7.14,17.71c-.1.25-.11.52-.03.78l20.63,64.4c.33,1.02,1.43,1.57,2.45,1.23l11.96-3.94c.6-.2.93-.85.73-1.45l-26.45-78.66c-.34-1.01-1.75-1.05-2.15-.06Z"/>
        <path class="cls-29" d="m134.57,421.24h-31.7c-.94,0-1.7-.78-1.68-1.72.24-9.2,1.07-53.62-3.91-91.78-2.67-20.43,1.85-32.31,3.38-35.62.27-.59.87-.96,1.52-.96h37.87c.95,0,7.92,3.59,7.88,4.55l-11.69,123.93c-.04.9-.78,1.6-1.67,1.6Z"/>
        <ellipse class="cls-34" cx="183.14" cy="145.7" rx="7.18" ry="5.61" transform="translate(1.53 293.29) rotate(-77.61)"/>
        <path class="cls-14" d="m164.42,294.38c0,.16-.04.3-.12.44-.8,1.23-5.94,6.99-31.82,4.81-24.56-2.07-32.84-6.03-34.78-7.18-.29-.17-.43-.53-.33-.86l29.71-103.09c.09-.32.39-.55.73-.55h32.55c.41,0,.74.32.76.73l3.3,105.7Z"/>
        <path class="cls-42" d="m119.89,421.02l-17.02.22c-.94,0-1.7-.78-1.68-1.72.24-9.2,1.07-53.62-3.91-91.78-2.67-20.43,1.85-32.31,3.38-35.62.27-.59.87-.96,1.52-.96l17.71-.87c.95,0,1.72.8,1.67,1.75v127.38c-.04.9-.78,1.6-1.67,1.6Z"/>
        <path class="cls-21" d="m181.79,282.12l-22.24.84-1.57-99.44s1.58,2.58,7.81,10.61c8.75,11.29,16,87.99,16,87.99Z"/>
        <path class="cls-13" d="m158.28,214.27c4.53-12.1,14.54-5.21,14.54-5.21l-9.97-22.98c-.25-1.15-1.05-2.1-2.14-2.55l-2.75-2.01s.36,37.9.31,32.76Z"/>
        <path class="cls-48" d="m158.28,187.67c1.7,10.37-19.69,7.81-20.28-4.48-.14-2.86,7.23-6.2,4.14-12.47-2.55-5.18,21.45,6.49,21.45,6.49,0,0-6.74,1.73-5.31,10.46Z"/>
        <path class="cls-25" d="m161.9,125.54c-9.65,0-20.35,6.6-24.44,16.23-1.37-.68-2.88-.99-4.43-.82-5.01.55-8.54,5.89-7.87,11.92.67,6.03,5.27,10.47,10.29,9.91.73-.08,1.43-.28,2.09-.55,4.05,14.15,13.95,16.34,24.37,16.34,13.74,0,23.24-13.94,24.07-44.34.4-14.64-11.44-8.7-24.07-8.7Z"/>
        <path class="cls-25" d="m125.63,240.37l13.72-6c6.92,14.1,26.28,25.37,50.92,34.29h10.38c-3.45,5.42-8.07,8.58-14.71,9.54-4.7.22-40.19-3.82-60.3-37.83Z"/>
        <path class="cls-13" d="m126.56,259.03l-21.08,1.86-8.1,30.7c-.09.33.04.68.33.86,1.74,1.03,8.64,4.22,27.92,6.38l.93-39.8Z"/>
        <path class="cls-39" d="m148.6,133.71c-3.04,1.39-5.19,9.66-7.23,17.07-.54,1.95-4.78,2.53-6.1-7.46-1.11-8.43.65-22.94,14.26-26.65s9.82,12.13-.93,17.04Z"/>
        <path class="cls-32" d="m148.6,133.71c-3.04,1.39-5.11-14.04,8.5-17.75s16.13-2.81,22.24-4.38,9.2-3.25,10.59-9.11c.23-.98,1.53-1.22,2.12-.39,4.7,6.63,2.02,27.93-15.3,28.12s-17.41-1.39-28.15,3.52Z"/>
        <g id="Rosto">
          <path class="cls-28" d="m159.98,140.87c-1.85.25-4.6,1.49-4.45,2.54.14,1.06,3.1,1.55,4.95,1.3,1.86-.24,3.25-1.3,3.1-2.35-.14-1.06-1.76-1.73-3.59-1.48h0Z"/>
          <circle class="cls-15" cx="161.1" cy="149.91" r="2.9"/>
          <circle class="cls-15" cx="177.45" cy="147.01" r="2.9"/>
          <path class="cls-28" d="m176.74,138.27c1.86-.17,4.82.41,4.91,1.47.11,1.06-2.67,2.21-4.52,2.38-1.87.19-3.46-.53-3.55-1.59-.11-1.06,1.32-2.08,3.17-2.26h0Z"/>
          <path class="cls-28" d="m171.22,157.08c.57.34,2.38-1.19,2.34-2.18-.03-.98-2.25-2.44-2.49-2s.98,1.25,1.01,2.07c.03.8-1.43,1.77-.86,2.12Z"/>
          <path class="cls-28" d="m174.17,163.62c0,.65-3.32,2.7-6.04,2.52s-3.72-2.12-3.72-2.77,1.57.4,3.72.41,6.04-.81,6.04-.16Z"/>
          <path class="cls-45" d="m132.79,148.97c-1.18,0-2.14,1.02-2.14,2.27s.96,2.27,2.14,2.27,3.9,1.1,3.9-.16-2.72-4.39-3.9-4.39Z"/>
        </g>
        <path class="cls-21" d="m141.34,288.63s-17.97,2.03-24.14,1.15-22.33-6.21-22.33-6.21c-1.38-.38-2.25-1.74-2.02-3.15l12.43-78.16c.13-.82.62-1.55,1.34-1.97l28.38-16.97c1.82-1.09,4.15.16,4.25,2.28l4.75,100.08c.07,1.55-1.11,2.86-2.66,2.94Z"/>
        <path class="cls-3" d="m119.84,205.73s-14.44-4.3-14.57-3.47l-12.43,78.16c-.22,1.41.65,2.77,2.02,3.15,0,0,16.16,5.33,22.33,6.21.14.02,2.65-84.05,2.65-84.05Z"/>
        <path class="cls-8" d="m127.55,203.56c6.12,6.03,7.02,21.35,21.55,38.08,14.16,16.31,31.91,24.54,41.17,27.01,1.92,5.55.9,16.47-3.38,21.24-15.29.27-57.78-20.9-67.86-43.81s-16.76-38.31-13.54-45.13c16.64-4,15.95-3.42,22.07,2.6Z"/>
        <path class="cls-9" d="m140.74,214.54c-5.26-11.8-16.53-4.95-16.53-4.95l4.35-23.54c.18-1.16.92-2.16,1.98-2.68,0,0,3.13-1.72,9.95-4.8-1.71,9.19.51,41.1.25,35.97Z"/>
        <path class="cls-21" d="m150.9,243.62c-6.72,2.55-16.58,1.05-16.69,1.03-.82-.13-1.58.43-1.71,1.25-.13.82.43,1.58,1.25,1.71.26.04,3.25.5,7.11.5,3.38,0,7.43-.36,10.92-1.64-3.45,5.24-8.94,9.49-9.02,9.55-.66.5-.78,1.44-.28,2.1.3.39.74.59,1.19.59.32,0,.64-.1.91-.31.34-.26,6.4-4.94,10.1-10.92-1.28-1.23-2.53-2.53-3.77-3.87Z"/>
      </g>
    </g>
  </g>
</svg>