<?xml version="1.0" encoding="UTF-8"?>
<!DOCTYPE svg PUBLIC "-//W3C//DTD SVG 1.1//EN" "http://www.w3.org/Graphics/SVG/1.1/DTD/svg11.dtd">
<!-- Creator: CorelDRAW -->
<svg xmlns="http://www.w3.org/2000/svg" xml:space="preserve" width="794px" height="1123px" version="1.1" style="shape-rendering:geometricPrecision; text-rendering:geometricPrecision; image-rendering:optimizeQuality; fill-rule:evenodd; clip-rule:evenodd"
viewBox="0 0 793.701 1122.52"
 xmlns:xlink="http://www.w3.org/1999/xlink"
 xmlns:xodm="http://www.corel.com/coreldraw/odm/2003">
 <defs>
  <style type="text/css">
   <![CDATA[
    .fil0 {fill:#E4E4F6}
   ]]>
  </style>
 </defs>
 <g id="Layer_x0020_1">
  <metadata id="CorelCorpID_0Corel-Layer"/>
  <g id="_1934227365504">
   <path class="fil0" d="M464.624 0c-5.541,3.454 -11.391,6.875 -17.593,10.251 -100.744,54.851 -54.913,111.343 37.327,106.742 83.581,-4.17 40.027,116.106 173.867,22.339 17.392,-12.185 61.626,-8.662 86.468,12.25 20.453,17.217 36.409,27.897 49.008,33.011l0 -184.593 -329.077 0z"/>
   <path class="fil0" d="M793.701 974.823c-54.368,-11.382 -123.283,-15.051 -155.657,-0.317 -76.677,34.897 -88.994,95.272 -173.13,147.834l-0.29 0.18 329.077 0 0 -147.697z"/>
   <path class="fil0" d="M0 169.096c101.367,6.872 231.953,-64.387 277.988,-9.315 55.959,66.947 85.449,47.946 140.398,134.469 22.282,35.086 -34.889,66.804 -71.478,96.329 -71.447,57.654 -269.263,96.308 -346.908,70.612l0 -292.095z"/>
   <path class="fil0" d="M793.701 374.483c-73.826,-11.13 -162.642,1.596 -206.025,18.739 -180.886,71.476 -110.113,64.149 -242.225,164.465 -78.654,59.725 36.602,93.666 73.79,159.326 16.577,29.269 236.953,90.154 374.46,4.919l0 -347.449z"/>
   <path class="fil0" d="M244.303 0c-1.682,9.233 -2.925,19.559 -3.651,31.209 -3.005,48.206 -117.133,62.745 -240.652,47.039l0 -78.248 244.303 0z"/>
   <path class="fil0" d="M0 762.082c5.402,-0.096 10.909,-0.161 16.631,-0.161 183.272,0 212.849,-155.903 223.567,82.672 2.43,54.075 209.221,49.252 168.506,125.721 -51.695,97.096 -143.216,36.603 -164.36,151.971l-0.041 0.235 -244.303 0 0 -360.438z"/>
  </g>
 </g>
</svg>
