<svg width="1440" height="1024" viewBox="0 0 1440 1024" fill="none" xmlns="http://www.w3.org/2000/svg">
<rect width="1440" height="1024" fill="#F5F5FA" fill-opacity="0.960784"/>
<path fill-rule="evenodd" clip-rule="evenodd" d="M3.44461 601.784C2.28851 602.269 1.14049 602.766 0 603.274V1024H1199.59C1202.47 1011.96 1204 999.407 1204 986.51C1204 895.764 1168.65 801.834 1075.41 801.834C1059.14 801.834 1042.19 804.693 1025.28 809.895C1014.6 770.718 984.805 739.813 942.652 739.813C925.35 739.813 908.09 745.02 892.661 753.867C851.76 688.795 776.762 635.21 691.017 635.21C624.814 635.21 565.017 667.153 522.375 711.664C511.61 706.824 498.651 703.711 484.251 703.711C470.523 703.711 447.584 708.927 428.931 717.7C398.991 684.151 354.649 661.13 297.375 661.13C271.867 661.13 245.955 665.696 221.1 673.726C196.83 623.368 139.674 588 73.0321 588C48.1002 588 24.4959 592.95 3.44461 601.784Z" fill="#E4E4F6"/>
</svg>
