<svg width="1440" height="1024" viewBox="0 0 1440 1024" fill="none" xmlns="http://www.w3.org/2000/svg">
<g clip-path="url(#clip0_160_1650)">
<rect width="1440" height="1024" fill="white"/>
<path fill-rule="evenodd" clip-rule="evenodd" d="M1439.84 596.619H623.889V720.06C655 721.538 686.191 717.906 715.06 710.398C721.975 717.542 731.522 724.312 743.687 729.507C755.288 734.456 777.04 739.212 796.765 740.026C806.916 773.435 833.999 804.938 882.404 825.59C903.968 834.791 927.936 841.057 952.562 844.614C950.319 887.299 982.652 931.752 1038.99 955.778C1103.67 983.371 1178.84 975.037 1220.64 938.779C1230.08 945.291 1239.57 950.69 1248.51 954.514C1266.09 962.012 1284.34 960.245 1301.74 953.175C1318.84 974.684 1343.66 993.504 1374.86 1006.82C1395.9 1015.8 1417.92 1021.44 1439.82 1024V810.31V596.619H1439.84Z" fill="#E4E4F6"/>
<path fill-rule="evenodd" clip-rule="evenodd" d="M277.316 927.04C314.212 927.04 351.204 900.851 351.204 868.535C351.204 836.219 314.212 810.03 277.316 810.03C240.421 810.03 199 836.219 199 868.535C199 900.851 227.32 927.04 277.316 927.04ZM360.942 974.309C373.652 974.309 383.952 965.29 383.952 954.161C383.952 943.032 373.652 934.013 360.942 934.013C348.232 934.013 337.932 943.032 337.932 954.161C337.932 965.29 348.232 974.309 360.942 974.309Z" fill="#211F45"/>
<path fill-rule="evenodd" clip-rule="evenodd" d="M1440 0H0V627.01C1.72568 627.249 3.45135 627.475 5.17703 627.674C5.08688 629.919 5.03537 632.164 5.03537 634.435C5.03537 729.993 89.5291 807.459 193.752 807.459C230.944 807.459 265.613 797.603 294.846 780.574C306.578 797.935 322.38 809.385 343.332 809.385C353.996 809.385 366.153 807.765 378.941 804.776C395.141 869.584 459.635 918 536.711 918C603.845 918 661.424 881.273 685.866 828.978C710.914 837.319 737.019 842.061 762.711 842.061C820.405 842.061 865.079 818.152 895.24 783.324C914.029 792.436 937.146 797.842 950.977 797.842C965.49 797.842 978.536 794.614 989.379 789.58C1032.33 835.792 1092.57 868.973 1159.27 868.973C1245.66 868.973 1321.2 813.33 1362.4 745.76C1377.94 754.951 1395.33 760.358 1412.76 760.358C1422.52 760.358 1431.62 758.644 1439.99 755.536V0H1440Z" fill="#211F45"/>
<path fill-rule="evenodd" clip-rule="evenodd" d="M1440 493C1405.75 499.574 1379.96 507.986 1368.76 518.675C1326.14 565.471 1396.41 559.827 1396.41 588.879C1396.41 617.932 1180.7 609.862 1086.56 705.88C1082.42 710.102 1078.93 714.335 1076 718.578C1086.31 719.508 1096.78 720 1107.4 720C1209.75 720 1299.26 675.224 1348.07 620.85C1366.49 628.247 1387.08 632.597 1407.74 632.597C1419.31 632.597 1430.08 631.218 1440 628.717V493.011V493Z" fill="#22204F"/>
<path fill-rule="evenodd" clip-rule="evenodd" d="M1353.57 164.901C1358.68 164.719 1363.39 164.558 1367.87 164.44V79.9065C1229.43 136.987 1110.77 93.4027 1023.99 170.181C964.104 230.529 1045.54 232.896 1038.52 274.274C1031.5 315.651 787.617 272.174 657.139 394.99C566.137 480.648 657.494 595.516 611.106 666.232C590.285 697.97 572.987 726.965 558.613 753.497C600.61 742.786 634.52 718.653 651.524 687.751C667.194 692.186 683.293 695.346 699.429 696.995C689.777 560.833 824.194 526.546 881.873 525.25C1043.49 521.608 1364.29 481.12 1269.85 341.958C1175.41 202.797 1296.87 166.914 1353.56 164.89L1353.57 164.901Z" fill="#22204F"/>
<path fill-rule="evenodd" clip-rule="evenodd" d="M705.359 45.241C609.049 86.0536 526.515 54.9002 466.142 109.734C424.496 152.811 481.128 154.503 476.251 184.052C471.374 213.59 301.783 182.557 211.059 270.237C147.777 331.39 211.303 413.4 179.057 463.883C122.413 552.54 103.234 611.21 97 651.868C122.829 663.418 152.605 670 184.301 670C206.988 670 228.685 666.615 248.671 660.462C246.813 606.66 246.801 539.519 241.251 493.992C228.588 389.983 326.145 364.192 367.351 363.236C479.723 360.631 702.804 331.731 637.127 232.381C571.449 133.031 655.914 107.416 695.336 105.976C734.757 104.537 740.233 105.262 859.707 116.196C955.272 124.932 997.064 48.9992 1006 9.94492L946.679 2H702.927C713.696 20.6041 717.693 40.0214 705.359 45.241Z" fill="#22204F"/>
<path fill-rule="evenodd" clip-rule="evenodd" d="M1440 101.768V19H1378.17C1254.79 60.9143 1142.99 40.9479 1067.82 112.34C1010.91 174.125 1096.6 170.815 1093.29 210.854C1089.98 250.894 829.793 226.043 704.902 352.386C617.8 440.51 724.951 544.058 683.213 614.84C656.986 659.304 639.998 691.299 629 716C639.045 707.42 647.384 697.844 653.629 687.507C679.749 694.234 706.97 698.058 733.761 698.058C755.449 698.058 775.378 695.541 793.467 691.021C788.968 678.028 784.845 664.049 781.206 649.042C747.808 511.024 917.472 486.055 979.514 480.721C1148.75 466.164 1455.46 386.277 1342.69 259.72C1241.96 146.671 1369.38 112.04 1440 101.79V101.768Z" fill="#2A2359"/>
<path fill-rule="evenodd" clip-rule="evenodd" d="M656.345 123.076C695.108 116.434 700.646 116.434 820.603 111.453C905.623 107.923 938.005 44.2063 946 2H629.94C652.958 21.0577 671.772 52.388 656.332 61.6474C567.743 114.774 480.999 94.8582 430.243 157.112C396.101 205.257 452.394 199.45 452.394 229.34C452.394 259.23 279.579 250.927 204.155 349.712C151.553 418.619 227.809 491.397 204.155 545.634C172.97 617.136 165.562 646.245 165 669.658C171.381 670.208 177.86 670.504 184.424 670.504C219.728 670.504 252.636 662.345 280.385 648.247C290.886 661.806 304.846 670.999 323.085 672C305.103 650.688 285.104 616.982 270.594 567.232C241.06 465.95 333.341 427.516 373.95 421.127C484.691 403.696 700.621 345.578 619.415 255.931C538.209 166.272 617.569 129.752 656.332 123.109L656.345 123.076Z" fill="#2A2359"/>
<path fill-rule="evenodd" clip-rule="evenodd" d="M674.289 199.552L676.283 203.268C676.344 203.397 676.467 203.493 676.601 203.547L680.846 205.293C681.36 205.507 681.36 206.15 680.846 206.364L676.601 208.11C676.454 208.163 676.344 208.271 676.283 208.388L674.289 212.105C674.044 212.555 673.31 212.555 673.066 212.105L671.072 208.388C671.011 208.26 670.888 208.163 670.754 208.11L666.509 206.364C665.995 206.15 665.995 205.507 666.509 205.293L670.754 203.547C670.901 203.493 671.011 203.386 671.072 203.268L673.066 199.552C673.31 199.102 674.044 199.102 674.289 199.552Z" fill="#2A2359"/>
<g style="mix-blend-mode:exclusion">
<path fill-rule="evenodd" clip-rule="evenodd" d="M636.918 489.078L638.912 492.795C638.973 492.923 639.095 493.02 639.23 493.073L643.475 494.819C643.988 495.033 643.988 495.676 643.475 495.89L639.23 497.636C639.083 497.69 638.973 497.797 638.912 497.915L636.918 501.632C636.673 502.081 635.939 502.081 635.694 501.632L633.7 497.915C633.639 497.786 633.517 497.69 633.382 497.636L629.137 495.89C628.624 495.676 628.624 495.033 629.137 494.819L633.382 493.073C633.529 493.02 633.639 492.913 633.7 492.795L635.694 489.078C635.939 488.628 636.673 488.628 636.918 489.078Z" fill="#342D5D"/>
</g>
<path fill-rule="evenodd" clip-rule="evenodd" d="M424.635 309.653L425.7 311.624C425.736 311.688 425.798 311.742 425.871 311.774L428.122 312.706C428.391 312.823 428.391 313.155 428.122 313.273L425.871 314.205C425.798 314.237 425.736 314.291 425.7 314.355L424.635 316.326C424.501 316.562 424.122 316.562 423.987 316.326L422.923 314.355C422.886 314.291 422.825 314.237 422.752 314.205L420.501 313.273C420.232 313.155 420.232 312.823 420.501 312.706L422.752 311.774C422.825 311.742 422.886 311.688 422.923 311.624L423.987 309.653C424.122 309.417 424.501 309.417 424.635 309.653Z" fill="white"/>
<path fill-rule="evenodd" clip-rule="evenodd" d="M1048.17 652.789L1049.23 654.76C1049.27 654.824 1049.33 654.878 1049.41 654.91L1051.66 655.842C1051.93 655.96 1051.93 656.292 1051.66 656.41L1049.41 657.342C1049.33 657.374 1049.27 657.427 1049.23 657.492L1048.17 659.462C1048.04 659.698 1047.66 659.698 1047.52 659.462L1046.46 657.492C1046.42 657.427 1046.36 657.374 1046.29 657.342L1044.04 656.41C1043.77 656.292 1043.77 655.96 1044.04 655.842L1046.29 654.91C1046.36 654.878 1046.42 654.824 1046.46 654.76L1047.52 652.789C1047.66 652.554 1048.04 652.554 1048.17 652.789Z" fill="white"/>
<path fill-rule="evenodd" clip-rule="evenodd" d="M926.01 66.7421L927.27 69.0878C927.307 69.1628 927.38 69.2271 927.478 69.2699L930.157 70.3732C930.487 70.5124 930.487 70.9087 930.157 71.048L927.478 72.1513C927.392 72.1834 927.319 72.2477 927.27 72.3333L926.01 74.6791C925.851 74.9683 925.399 74.9683 925.239 74.6791L923.979 72.3333C923.943 72.2584 923.869 72.1941 923.772 72.1513L921.092 71.048C920.762 70.9087 920.762 70.5124 921.092 70.3732L923.772 69.2699C923.857 69.2378 923.931 69.1735 923.979 69.0878L925.239 66.7421C925.399 66.4528 925.851 66.4528 926.01 66.7421Z" fill="#DDACC4"/>
<path fill-rule="evenodd" clip-rule="evenodd" d="M485.459 438.21L487.453 441.927C487.514 442.055 487.637 442.151 487.771 442.205L492.016 443.951C492.53 444.165 492.53 444.808 492.016 445.022L487.771 446.768C487.624 446.822 487.514 446.929 487.453 447.047L485.459 450.763C485.214 451.213 484.48 451.213 484.236 450.763L482.242 447.047C482.181 446.918 482.058 446.822 481.924 446.768L477.679 445.022C477.165 444.808 477.165 444.165 477.679 443.951L481.924 442.205C482.07 442.151 482.181 442.044 482.242 441.927L484.236 438.21C484.48 437.76 485.214 437.76 485.459 438.21Z" fill="white"/>
<path fill-rule="evenodd" clip-rule="evenodd" d="M1435.6 96.7337L1436.86 99.0795C1436.9 99.1545 1436.97 99.2188 1437.07 99.2616L1439.75 100.365C1440.08 100.504 1440.08 100.9 1439.75 101.04L1437.07 102.143C1436.99 102.175 1436.91 102.239 1436.86 102.325L1435.6 104.671C1435.45 104.96 1434.99 104.96 1434.83 104.671L1433.57 102.325C1433.54 102.25 1433.46 102.186 1433.37 102.143L1430.69 101.04C1430.36 100.9 1430.36 100.504 1430.69 100.365L1433.37 99.2616C1433.45 99.2295 1433.53 99.1652 1433.57 99.0795L1434.83 96.7337C1434.99 96.4445 1435.45 96.4445 1435.6 96.7337Z" fill="white"/>
<path fill-rule="evenodd" clip-rule="evenodd" d="M347.225 557.759L350.528 563.907C350.638 564.11 350.821 564.282 351.066 564.378L358.088 567.27C358.944 567.624 358.944 568.684 358.088 569.038L351.066 571.93C350.834 572.026 350.638 572.187 350.528 572.401L347.225 578.549C346.821 579.299 345.61 579.299 345.206 578.549L341.903 572.401C341.793 572.197 341.61 572.026 341.365 571.93L334.343 569.038C333.487 568.684 333.487 567.624 334.343 567.27L341.365 564.378C341.598 564.282 341.793 564.121 341.903 563.907L345.206 557.759C345.61 557.009 346.821 557.009 347.225 557.759Z" fill="#DDACC4"/>
<g style="mix-blend-mode:exclusion">
<path fill-rule="evenodd" clip-rule="evenodd" d="M485.459 513.093L487.453 516.809C487.514 516.938 487.637 517.034 487.771 517.088L492.016 518.834C492.53 519.048 492.53 519.691 492.016 519.905L487.771 521.651C487.624 521.704 487.514 521.812 487.453 521.929L485.459 525.646C485.214 526.096 484.48 526.096 484.236 525.646L482.242 521.929C482.181 521.801 482.058 521.704 481.924 521.651L477.679 519.905C477.165 519.691 477.165 519.048 477.679 518.834L481.924 517.088C482.07 517.034 482.181 516.927 482.242 516.809L484.236 513.093C484.48 512.643 485.214 512.643 485.459 513.093Z" fill="#342D5D"/>
</g>
<path fill-rule="evenodd" clip-rule="evenodd" d="M714.671 145.673L717.974 151.822C718.084 152.025 718.267 152.197 718.512 152.293L725.534 155.185C726.39 155.539 726.39 156.599 725.534 156.952L718.512 159.844C718.279 159.941 718.084 160.102 717.974 160.316L714.671 166.464C714.267 167.214 713.056 167.214 712.652 166.464L709.349 160.316C709.239 160.112 709.056 159.941 708.811 159.844L701.789 156.952C700.933 156.599 700.933 155.539 701.789 155.185L708.811 152.293C709.043 152.197 709.239 152.036 709.349 151.822L712.652 145.673C713.056 144.924 714.267 144.924 714.671 145.673Z" fill="#DDACC4"/>
<path fill-rule="evenodd" clip-rule="evenodd" d="M1003.65 653.175L1006.96 659.323C1007.07 659.527 1007.25 659.698 1007.49 659.794L1014.52 662.687C1015.37 663.04 1015.37 664.1 1014.52 664.454L1007.49 667.346C1007.26 667.442 1007.07 667.603 1006.96 667.817L1003.65 673.966C1003.25 674.715 1002.04 674.715 1001.64 673.966L998.332 667.817C998.222 667.614 998.039 667.442 997.794 667.346L990.772 664.454C989.916 664.1 989.916 663.04 990.772 662.687L997.794 659.794C998.026 659.698 998.222 659.537 998.332 659.323L1001.64 653.175C1002.04 652.425 1003.25 652.425 1003.65 653.175Z" fill="#DDACC4"/>
<path fill-rule="evenodd" clip-rule="evenodd" d="M508.775 650.979L512.763 658.423C512.898 658.67 513.13 658.873 513.412 658.991L521.914 662.483C522.954 662.911 522.954 664.197 521.914 664.625L513.412 668.117C513.13 668.235 512.898 668.438 512.763 668.685L508.775 676.129C508.286 677.04 506.818 677.04 506.329 676.129L502.341 668.685C502.206 668.438 501.974 668.235 501.693 668.117L493.191 664.625C492.151 664.197 492.151 662.911 493.191 662.483L501.693 658.991C501.974 658.873 502.206 658.67 502.341 658.423L506.329 650.979C506.818 650.069 508.286 650.069 508.775 650.979Z" fill="#22204F"/>
<g style="mix-blend-mode:exclusion">
<path fill-rule="evenodd" clip-rule="evenodd" d="M307.234 158.366L311.222 165.811C311.357 166.057 311.589 166.261 311.871 166.378L320.373 169.87C321.413 170.299 321.413 171.584 320.373 172.013L311.871 175.505C311.589 175.622 311.357 175.826 311.222 176.072L307.234 183.517C306.745 184.427 305.277 184.427 304.788 183.517L300.8 176.072C300.665 175.826 300.433 175.622 300.152 175.505L291.649 172.013C290.61 171.584 290.61 170.299 291.649 169.87L300.152 166.378C300.433 166.261 300.665 166.057 300.8 165.811L304.788 158.366C305.277 157.456 306.745 157.456 307.234 158.366Z" fill="#342D5D"/>
</g>
<path fill-rule="evenodd" clip-rule="evenodd" d="M129.047 247.998L131.041 251.715C131.102 251.844 131.224 251.94 131.359 251.994L135.604 253.74C136.118 253.954 136.118 254.596 135.604 254.811L131.359 256.557C131.212 256.61 131.102 256.717 131.041 256.835L129.047 260.552C128.802 261.002 128.068 261.002 127.824 260.552L125.83 256.835C125.768 256.707 125.646 256.61 125.512 256.557L121.267 254.811C120.753 254.596 120.753 253.954 121.267 253.74L125.512 251.994C125.658 251.94 125.768 251.833 125.83 251.715L127.824 247.998C128.068 247.548 128.802 247.548 129.047 247.998Z" fill="#2A2359"/>
<path fill-rule="evenodd" clip-rule="evenodd" d="M1346.77 213.83L1348.76 217.546C1348.82 217.675 1348.95 217.771 1349.08 217.825L1353.33 219.571C1353.84 219.785 1353.84 220.428 1353.33 220.642L1349.08 222.388C1348.93 222.441 1348.82 222.549 1348.76 222.666L1346.77 226.383C1346.52 226.833 1345.79 226.833 1345.54 226.383L1343.55 222.666C1343.49 222.538 1343.37 222.441 1343.23 222.388L1338.99 220.642C1338.47 220.428 1338.47 219.785 1338.99 219.571L1343.23 217.825C1343.38 217.771 1343.49 217.664 1343.55 217.546L1345.54 213.83C1345.79 213.38 1346.52 213.38 1346.77 213.83Z" fill="#2A2359"/>
<path fill-rule="evenodd" clip-rule="evenodd" d="M833.259 609.194L835.253 612.911C835.314 613.039 835.436 613.136 835.571 613.189L839.816 614.935C840.33 615.15 840.33 615.792 839.816 616.006L835.571 617.752C835.424 617.806 835.314 617.913 835.253 618.031L833.259 621.748C833.014 622.198 832.28 622.198 832.036 621.748L830.042 618.031C829.98 617.902 829.858 617.806 829.724 617.752L825.479 616.006C824.965 615.792 824.965 615.15 825.479 614.935L829.724 613.189C829.87 613.136 829.98 613.029 830.042 612.911L832.036 609.194C832.28 608.744 833.014 608.744 833.259 609.194Z" fill="#2A2359"/>
<path fill-rule="evenodd" clip-rule="evenodd" d="M1354.73 186.676L1358.04 192.825C1358.15 193.028 1358.33 193.2 1358.57 193.296L1365.6 196.188C1366.45 196.541 1366.45 197.602 1365.6 197.955L1358.57 200.847C1358.34 200.944 1358.15 201.104 1358.04 201.319L1354.73 207.467C1354.33 208.217 1353.12 208.217 1352.71 207.467L1349.41 201.319C1349.3 201.115 1349.12 200.944 1348.87 200.847L1341.85 197.955C1340.99 197.602 1340.99 196.541 1341.85 196.188L1348.87 193.296C1349.11 193.2 1349.3 193.039 1349.41 192.825L1352.71 186.676C1353.12 185.927 1354.33 185.927 1354.73 186.676Z" fill="#DDACC4"/>
<path fill-rule="evenodd" clip-rule="evenodd" d="M707.772 56.0199L709.032 58.3657C709.069 58.4406 709.142 58.5049 709.24 58.5477L711.919 59.651C712.249 59.7903 712.249 60.1866 711.919 60.3258L709.24 61.4291C709.154 61.4612 709.081 61.5255 709.032 61.6112L707.772 63.957C707.613 64.2462 707.16 64.2462 707.001 63.957L705.741 61.6112C705.704 61.5362 705.631 61.4719 705.533 61.4291L702.854 60.3258C702.524 60.1866 702.524 59.7903 702.854 59.651L705.533 58.5477C705.619 58.5156 705.692 58.4513 705.741 58.3657L707.001 56.0199C707.16 55.7307 707.613 55.7307 707.772 56.0199Z" fill="white"/>
<g style="mix-blend-mode:exclusion">
<path fill-rule="evenodd" clip-rule="evenodd" d="M403.265 242.654L405.259 246.37C405.32 246.499 405.442 246.595 405.577 246.649L409.822 248.395C410.335 248.609 410.335 249.252 409.822 249.466L405.577 251.212C405.43 251.265 405.32 251.373 405.259 251.49L403.265 255.207C403.02 255.657 402.286 255.657 402.041 255.207L400.047 251.49C399.986 251.362 399.864 251.265 399.729 251.212L395.484 249.466C394.971 249.252 394.971 248.609 395.484 248.395L399.729 246.649C399.876 246.595 399.986 246.488 400.047 246.37L402.041 242.654C402.286 242.204 403.02 242.204 403.265 242.654Z" fill="#342D5D"/>
</g>
<g style="mix-blend-mode:exclusion">
<path fill-rule="evenodd" clip-rule="evenodd" d="M1163.77 582.266L1165.77 585.983C1165.83 586.112 1165.95 586.208 1166.09 586.261L1170.33 588.007C1170.84 588.222 1170.84 588.864 1170.33 589.079L1166.09 590.824C1165.94 590.878 1165.83 590.985 1165.77 591.103L1163.77 594.82C1163.53 595.27 1162.79 595.27 1162.55 594.82L1160.56 591.103C1160.49 590.974 1160.37 590.878 1160.24 590.824L1155.99 589.079C1155.48 588.864 1155.48 588.222 1155.99 588.007L1160.24 586.261C1160.38 586.208 1160.49 586.101 1160.56 585.983L1162.55 582.266C1162.79 581.816 1163.53 581.816 1163.77 582.266Z" fill="#342D5D"/>
</g>
<path fill-rule="evenodd" clip-rule="evenodd" d="M912.199 181.364L914.193 185.08C914.254 185.209 914.376 185.305 914.511 185.359L918.756 187.105C919.27 187.319 919.27 187.962 918.756 188.176L914.511 189.922C914.364 189.975 914.254 190.083 914.193 190.2L912.199 193.917C911.954 194.367 911.22 194.367 910.975 193.917L908.981 190.2C908.92 190.072 908.798 189.975 908.663 189.922L904.419 188.176C903.905 187.962 903.905 187.319 904.419 187.105L908.663 185.359C908.81 185.305 908.92 185.198 908.981 185.08L910.975 181.364C911.22 180.914 911.954 180.914 912.199 181.364Z" fill="#22204F"/>
</g>
<defs>
<clipPath id="clip0_160_1650">
<rect width="1440" height="1024" fill="white"/>
</clipPath>
</defs>
</svg>
