<svg width="44" height="34" viewBox="0 0 44 34" fill="none" xmlns="http://www.w3.org/2000/svg">
<path d="M40 1C37.78 0.3 35.34 0 33 0C29.1 0 24.9 0.8 22 3C19.1 0.8 14.9 0 11 0C7.1 0 2.9 0.8 0 3V32.3C0 32.8 0.5 33.3 1 33.3C1.2 33.3 1.3 33.2 1.5 33.2C4.2 31.9 8.1 31 11 31C14.9 31 19.1 31.8 22 34C24.7 32.3 29.6 31 33 31C36.3 31 39.7 31.6 42.5 33.1C42.7 33.2 42.8 33.2 43 33.2C43.5 33.2 44 32.7 44 32.2V3C42.8 2.1 41.5 1.5 40 1ZM40 28C37.8 27.3 35.4 27 33 27C29.6 27 24.7 28.3 22 30V7C24.7 5.3 29.6 4 33 4C35.4 4 37.8 4.3 40 5V28Z" fill="#F07A7A"/>
<path d="M33.5 12.5C35.26 12.5 36.96 12.68 38.5 13.02V9.98C36.92 9.68 35.22 9.5 33.5 9.5C30.1 9.5 27.02 10.08 24.5 11.16V14.48C26.76 13.2 29.9 12.5 33.5 12.5Z" fill="#F07A7A"/>
<path d="M24.5 16.4799V19.7999C26.76 18.5199 29.9 17.8199 33.5 17.8199C35.26 17.8199 36.96 17.9999 38.5 18.3399V15.2999C36.92 14.9999 35.22 14.8199 33.5 14.8199C30.1 14.8199 27.02 15.4199 24.5 16.4799Z" fill="#F07A7A"/>
<path d="M33.5 20.16C30.1 20.16 27.02 20.74 24.5 21.82V25.14C26.76 23.86 29.9 23.16 33.5 23.16C35.26 23.16 36.96 23.34 38.5 23.68V20.64C36.92 20.32 35.22 20.16 33.5 20.16Z" fill="#F07A7A"/>
</svg>
