<svg width="1552" height="398" viewBox="0 0 1552 398" fill="none" xmlns="http://www.w3.org/2000/svg">
<path fill-rule="evenodd" clip-rule="evenodd" d="M122.5 337C164.197 337 206 303.197 206 261.5C206 219.803 164.197 186 122.5 186C80.8025 186 34 219.803 34 261.5C34 303.197 66 337 122.5 337ZM217 398C231.359 398 243 386.359 243 372C243 357.641 231.359 346 217 346C202.641 346 191 357.641 191 372C191 386.359 202.641 398 217 398Z" fill="#211F45"/>
<path fill-rule="evenodd" clip-rule="evenodd" d="M1552 0C1505.05 39.0072 1471.99 40.0143 1409 29.5C1375.94 100.27 1343.62 111.618 1265.5 90C1127.21 240.047 1028.18 250.134 865 136C826.635 147.187 804.611 145.348 764.5 129C695.238 186.588 646.854 198.833 539.5 176.5C452.544 301.667 281.217 300.725 210 151.5C161.614 162.319 142.916 155.191 120 126C77.8439 142.363 37.2662 150.992 0 151.439V0H1552Z" fill="#211F45"/>
</svg>
