<svg width="1302" height="472" viewBox="0 0 1302 472" fill="none" xmlns="http://www.w3.org/2000/svg">
<path fill-rule="evenodd" clip-rule="evenodd" d="M4.22339 15.3903C2.97372 15.9143 1.73279 16.4508 0.5 17V471.5H1297.17C1300.29 458.492 1301.94 444.933 1301.94 431C1301.94 332.969 1263.73 231.5 1162.94 231.5C1145.36 231.5 1127.03 234.588 1108.76 240.207C1097.22 197.886 1065.01 164.5 1019.44 164.5C1000.74 164.5 982.084 170.124 965.407 179.682C921.195 109.386 840.128 51.5 747.443 51.5C675.881 51.5 611.246 86.0076 565.152 134.091C553.516 128.862 539.508 125.5 523.943 125.5C509.104 125.5 484.308 131.134 464.145 140.611C431.783 104.37 383.852 79.5 321.943 79.5C294.369 79.5 266.361 84.4335 239.494 93.1078C213.26 38.7075 151.478 0.5 79.4428 0.5C52.493 0.5 26.9784 5.84766 4.22339 15.3903Z" fill="#E4E4F6"/>
</svg>
