<svg width="32" height="35" viewBox="0 0 32 35" fill="none" xmlns="http://www.w3.org/2000/svg">
<path d="M12.0003 13H12.0203M20.0003 13H20.0203M2.00028 15C2.00028 11.287 3.47527 7.72601 6.10078 5.1005C8.72629 2.475 12.2872 1 16.0003 1C19.7133 1 23.2743 2.475 25.8998 5.1005C28.5253 7.72601 30.0003 11.287 30.0003 15V29C30.0948 29.7548 29.9452 30.52 29.5732 31.1835C29.2012 31.8471 28.6264 32.374 27.9331 32.6871C27.2399 33.0001 26.4646 33.0829 25.7208 32.9233C24.9771 32.7637 24.304 32.37 23.8003 31.8C23.4916 31.4051 23.0971 31.0857 22.6466 30.8661C22.1961 30.6464 21.7015 30.5322 21.2003 30.5322C20.6991 30.5322 20.2045 30.6464 19.754 30.8661C19.3035 31.0857 18.9089 31.4051 18.6003 31.8C18.2916 32.1949 17.8971 32.5143 17.4466 32.7339C16.9961 32.9536 16.5015 33.0678 16.0003 33.0678C15.4991 33.0678 15.0045 32.9536 14.554 32.7339C14.1035 32.5143 13.7089 32.1949 13.4003 31.8C13.0916 31.4051 12.6971 31.0857 12.2466 30.8661C11.7961 30.6464 11.3015 30.5322 10.8003 30.5322C10.2991 30.5322 9.80447 30.6464 9.35397 30.8661C8.90348 31.0857 8.50893 31.4051 8.20028 31.8C7.69656 32.37 7.0235 32.7637 6.27975 32.9233C5.536 33.0829 4.76068 33.0001 4.06741 32.6871C3.37415 32.374 2.79939 31.8471 2.42739 31.1835C2.05539 30.52 1.90571 29.7548 2.00028 29V15Z" stroke="white" stroke-width="2" stroke-linecap="round" stroke-linejoin="round"/>
</svg>
