<svg width="40" height="40" viewBox="0 0 40 40" fill="none" xmlns="http://www.w3.org/2000/svg">
<path fill-rule="evenodd" clip-rule="evenodd" d="M20.0006 3.33252C10.7956 3.33252 3.33398 10.7942 3.33398 19.9992C3.33398 29.2042 10.7956 36.6658 20.0006 36.6658C29.2056 36.6658 36.6673 29.2042 36.6673 19.9992C36.6673 10.7942 29.2056 3.33252 20.0006 3.33252ZM22.789 20.5942C22.668 20.697 22.5749 20.8286 22.5181 20.9768C22.4613 21.1251 22.4427 21.2852 22.464 21.4425L23.1723 25.6958C23.1922 25.8152 23.1858 25.9374 23.1536 26.054C23.1215 26.1706 23.0643 26.2788 22.9861 26.3711C22.9079 26.4634 22.8106 26.5376 22.7009 26.5885C22.5911 26.6394 22.4716 26.6658 22.3506 26.6658H17.6506C17.5297 26.6658 17.4102 26.6394 17.3004 26.5885C17.1907 26.5376 17.0934 26.4634 17.0152 26.3711C16.937 26.2788 16.8798 26.1706 16.8477 26.054C16.8155 25.9374 16.8091 25.8152 16.829 25.6958L17.5373 21.4425C17.5586 21.2852 17.54 21.1251 17.4832 20.9768C17.4264 20.8286 17.3333 20.697 17.2123 20.5942C16.5864 20.0302 16.1461 19.2897 15.9497 18.4703C15.7532 17.651 15.8097 16.7914 16.1118 16.0049C16.4139 15.2183 16.9474 14.5418 17.6418 14.0647C18.3362 13.5875 19.1589 13.3321 20.0015 13.3321C20.844 13.3321 21.6668 13.5875 22.3612 14.0647C23.0556 14.5418 23.589 15.2183 23.8911 16.0049C24.1932 16.7914 24.2498 17.651 24.0533 18.4703C23.8568 19.2897 23.4149 20.0302 22.789 20.5942Z" fill="#F2C454"/>
</svg>
