<?xml version="1.0" encoding="UTF-8"?>
<svg xmlns="http://www.w3.org/2000/svg" viewBox="0 0 1118.17 938.28">
  <defs>
    <style>
      .cls-1 {
        fill: #22204f;
      }

      .cls-1, .cls-2, .cls-3, .cls-4, .cls-5, .cls-6, .cls-7 {
        fill-rule: evenodd;
        stroke-width: 0px;
      }

      .cls-2 {
        fill: #2a2359;
      }

      .cls-8 {
        isolation: isolate;
      }

      .cls-3 {
        fill: #342d5d;
        mix-blend-mode: exclusion;
      }

      .cls-4 {
        fill: #211f45;
      }

      .cls-5 {
        fill: #fff;
      }

      .cls-6 {
        fill: #ddacc4;
      }

      .cls-7 {
        fill: #e4e4f6;
      }
    </style>
  </defs>
  <g class="cls-8">
    <g id="Camada_2" data-name="Camada 2">
      <g id="Camada_1-2" data-name="Camada 1">
        <g id="Espaço">
          <path class="cls-7" d="m1118.17,539.29H510.49v115.24c23.17,1.38,46.4-2.01,67.9-9.02,5.15,6.67,12.26,12.99,21.32,17.84,8.64,4.62,24.84,9.06,39.53,9.82,7.56,31.19,27.73,60.6,63.78,79.88,16.06,8.59,33.91,14.44,52.25,17.76-1.67,39.85,22.41,81.35,64.37,103.78,48.17,25.76,104.15,17.98,135.28-15.87,7.03,6.08,14.1,11.12,20.76,14.69,13.09,7,26.68,5.35,39.64-1.25,12.74,20.08,31.22,37.65,54.46,50.08,15.67,8.38,32.07,13.65,48.38,16.04v-398.99Z"/>
          <path class="cls-4" d="m93.41,723.66c30.16,0,60.4-24.45,60.4-54.62s-30.24-54.62-60.4-54.62-64.02,24.45-64.02,54.62,23.15,54.62,64.02,54.62Zm68.36,44.13c10.39,0,18.81-8.42,18.81-18.81s-8.42-18.81-18.81-18.81-18.81,8.42-18.81,18.81,8.42,18.81,18.81,18.81Z"/>
          <path class="cls-4" d="m1118.17,0H0v472.04c1.34.18,2.68.35,4.02.5-.07,1.69-.11,3.38-.11,5.09,0,71.94,65.61,130.26,146.54,130.26,28.88,0,55.8-7.42,78.5-20.24,9.11,13.07,21.38,21.69,37.65,21.69,8.28,0,17.72-1.22,27.65-3.47,12.58,48.79,62.66,85.24,122.51,85.24,52.13,0,96.84-27.65,115.82-67.02,19.45,6.28,39.72,9.85,59.67,9.85,44.8,0,79.49-18,102.91-44.22,14.59,6.86,32.54,10.93,43.28,10.93,11.27,0,21.4-2.43,29.82-6.22,33.35,34.79,80.13,59.77,131.92,59.77,67.08,0,125.74-41.89,157.73-92.76,12.07,6.92,25.57,10.99,39.11,10.99,7.58,0,14.64-1.29,21.14-3.63V0Z"/>
          <path class="cls-1" d="m1118.17,441.84c-22.45,6.15-39.35,14.02-46.69,24.02-27.93,43.78,18.12,38.5,18.12,65.68s-141.37,19.63-203.07,109.46c-2.71,3.95-5,7.91-6.92,11.88,6.76.87,13.62,1.33,20.58,1.33,67.08,0,125.74-41.89,157.73-92.76,12.07,6.92,25.57,10.99,39.11,10.99,7.58,0,14.64-1.29,21.14-3.63v-126.96Z"/>
          <path class="cls-1" d="m1106.48,135.95c4.18-.17,8.03-.32,11.69-.43V56.6c-113.17,53.29-210.17,12.6-281.11,84.28-48.95,56.34,17.62,58.55,11.88,97.18-5.74,38.63-205.1-1.96-311.76,112.7-74.39,79.97.29,187.21-37.63,253.23-17.02,29.63-31.16,56.7-42.91,81.47,34.33-10,62.05-32.53,75.95-61.38,12.81,4.14,25.97,7.09,39.16,8.63-7.89-127.12,101.99-159.13,149.14-160.34,132.11-3.4,394.35-41.2,317.15-171.12-77.2-129.92,22.09-163.42,68.43-165.31Z"/>
          <path class="cls-1" d="m576.74,39.35c-78.79,37.14-146.31,8.79-195.7,58.69-34.07,39.2,12.26,40.74,8.27,67.63-3.99,26.88-142.73-1.36-216.95,78.43-51.77,55.65.2,130.28-26.18,176.22-46.34,80.68-62.03,134.07-67.13,171.07,21.13,10.51,45.49,16.5,71.42,16.5,18.56,0,36.31-3.08,52.66-8.68-1.52-48.96-1.53-110.06-6.07-151.49-10.36-94.65,69.45-118.12,103.16-118.99,91.93-2.37,274.43-28.67,220.7-119.08-53.73-90.41,15.37-113.72,47.62-115.03,32.25-1.31,36.73-.65,134.47,9.3,78.18,7.95,112.37-61.15,119.68-96.69L774.16,0h-199.41c8.81,16.93,12.08,34.6,1.99,39.35Z"/>
          <path class="cls-2" d="m1118.17,77.27V0h-46.04c-91.88,39.13-175.13,20.49-231.1,87.14-42.38,57.68,21.43,54.59,18.96,91.97-2.46,37.38-196.21,14.18-289.21,132.13-64.86,82.27,14.93,178.94-16.15,245.02-19.53,41.51-32.18,71.38-40.37,94.44,7.48-8.01,13.69-16.95,18.34-26.6,19.45,6.28,39.72,9.85,59.67,9.85,16.15,0,30.99-2.35,44.46-6.57-3.35-12.13-6.42-25.18-9.13-39.19-24.87-128.85,101.47-152.16,147.67-157.14,126.02-13.59,354.41-88.17,270.44-206.32-75.01-105.54,19.87-137.87,72.46-147.44Z"/>
          <path class="cls-2" d="m536.5,110.1c31.71-6.04,36.24-6.04,134.37-10.57C740.42,96.32,766.91,38.38,773.45,0h-258.55c18.83,17.33,34.22,45.82,21.59,54.24-72.47,48.31-143.43,30.2-184.95,86.81-27.93,43.78,18.12,38.5,18.12,65.68s-141.37,19.63-203.07,109.46c-43.03,62.66,19.35,128.84,0,178.16-25.51,65.02-31.57,91.49-32.03,112.78,5.22.5,10.52.77,15.89.77,28.88,0,55.8-7.42,78.5-20.24,8.59,12.33,20.01,20.69,34.93,21.6-14.71-19.38-31.07-50.03-42.94-95.27-24.16-92.1,51.33-127.05,84.55-132.86,90.59-15.85,267.23-68.7,200.8-150.22-66.43-81.53-1.51-114.74,30.2-120.78Z"/>
          <g id="Estrelas">
            <path class="cls-2" d="m551.2,168.3l1.63,3.47c.05.12.15.21.26.26l3.47,1.63c.42.2.42.8,0,1l-3.47,1.63c-.12.05-.21.15-.26.26l-1.63,3.47c-.2.42-.8.42-1,0l-1.63-3.47c-.05-.12-.15-.21-.26-.26l-3.47-1.63c-.42-.2-.42-.8,0-1l3.47-1.63c.12-.05.21-.15.26-.26l1.63-3.47c.2-.42.8-.42,1,0Z"/>
            <path class="cls-3" d="m520.65,438.6l1.63,3.47c.05.12.15.21.26.26l3.47,1.63c.42.2.42.8,0,1l-3.47,1.63c-.12.05-.21.15-.26.26l-1.63,3.47c-.2.42-.8.42-1,0l-1.63-3.47c-.05-.12-.15-.21-.26-.26l-3.47-1.63c-.42-.2-.42-.8,0-1l3.47-1.63c.12-.05.21-.15.26-.26l1.63-3.47c.2-.42.8-.42,1,0Z"/>
            <path class="cls-5" d="m347.12,271.09l.87,1.84c.03.06.08.11.14.14l1.84.87c.22.11.22.42,0,.53l-1.84.87c-.06.03-.11.08-.14.14l-.87,1.84c-.11.22-.42.22-.53,0l-.87-1.84c-.03-.06-.08-.11-.14-.14l-1.84-.87c-.22-.11-.22-.42,0-.53l1.84-.87c.06-.03.11-.08.14-.14l.87-1.84c.11-.22.42-.22.53,0Z"/>
            <path class="cls-5" d="m856.83,591.44l.87,1.84c.03.06.08.11.14.14l1.84.87c.22.11.22.42,0,.53l-1.84.87c-.06.03-.11.08-.14.14l-.87,1.84c-.11.22-.42.22-.53,0l-.87-1.84c-.03-.06-.08-.11-.14-.14l-1.84-.87c-.22-.11-.22-.42,0-.53l1.84-.87c.06-.03.11-.08.14-.14l.87-1.84c.11-.22.42-.22.53,0Z"/>
            <path class="cls-6" d="m756.97,44.31l1.03,2.19c.03.07.09.13.17.17l2.19,1.03c.27.13.27.5,0,.63l-2.19,1.03c-.07.03-.13.09-.17.17l-1.03,2.19c-.13.27-.5.27-.63,0l-1.03-2.19c-.03-.07-.09-.13-.17-.17l-2.19-1.03c-.27-.13-.27-.5,0-.63l2.19-1.03c.07-.03.13-.09.17-.17l1.03-2.19c.13-.27.5-.27.63,0Z"/>
            <path class="cls-5" d="m396.84,391.11l1.63,3.47c.05.12.15.21.26.26l3.47,1.63c.42.2.42.8,0,1l-3.47,1.63c-.12.05-.21.15-.26.26l-1.63,3.47c-.2.42-.8.42-1,0l-1.63-3.47c-.05-.12-.15-.21-.26-.26l-3.47-1.63c-.42-.2-.42-.8,0-1l3.47-1.63c.12-.05.21-.15.26-.26l1.63-3.47c.2-.42.8-.42,1,0Z"/>
            <path class="cls-6" d="m283.84,502.72l2.7,5.74c.09.19.24.35.44.44l5.74,2.7c.7.33.7,1.32,0,1.65l-5.74,2.7c-.19.09-.35.24-.44.44l-2.7,5.74c-.33.7-1.32.7-1.65,0l-2.7-5.74c-.09-.19-.24-.35-.44-.44l-5.74-2.7c-.7-.33-.7-1.32,0-1.65l5.74-2.7c.19-.09.35-.24.44-.44l2.7-5.74c.33-.7,1.32-.7,1.65,0Z"/>
            <path class="cls-3" d="m396.84,461.02l1.63,3.47c.05.12.15.21.26.26l3.47,1.63c.42.2.42.8,0,1l-3.47,1.63c-.12.05-.21.15-.26.26l-1.63,3.47c-.2.42-.8.42-1,0l-1.63-3.47c-.05-.12-.15-.21-.26-.26l-3.47-1.63c-.42-.2-.42-.8,0-1l3.47-1.63c.12-.05.21-.15.26-.26l1.63-3.47c.2-.42.8-.42,1,0Z"/>
            <path class="cls-6" d="m584.21,118l2.7,5.74c.09.19.24.35.44.44l5.74,2.7c.7.33.7,1.32,0,1.65l-5.74,2.7c-.19.09-.35.24-.44.44l-2.7,5.74c-.33.7-1.32.7-1.65,0l-2.7-5.74c-.09-.19-.24-.35-.44-.44l-5.74-2.7c-.7-.33-.7-1.32,0-1.65l5.74-2.7c.19-.09.35-.24.44-.44l2.7-5.74c.33-.7,1.32-.7,1.65,0Z"/>
            <path class="cls-6" d="m820.44,591.8l2.7,5.74c.09.19.24.35.44.44l5.74,2.7c.7.33.7,1.32,0,1.65l-5.74,2.7c-.19.09-.35.24-.44.44l-2.7,5.74c-.33.7-1.32.7-1.65,0l-2.7-5.74c-.09-.19-.24-.35-.44-.44l-5.74-2.7c-.7-.33-.7-1.32,0-1.65l5.74-2.7c.19-.09.35-.24.44-.44l2.7-5.74c.33-.7,1.32-.7,1.65,0Z"/>
            <path class="cls-1" d="m415.9,589.75l3.26,6.95c.11.23.3.42.53.53l6.95,3.26c.85.4.85,1.6,0,2l-6.95,3.26c-.23.11-.42.3-.53.53l-3.26,6.95c-.4.85-1.6.85-2,0l-3.26-6.95c-.11-.23-.3-.42-.53-.53l-6.95-3.26c-.85-.4-.85-1.6,0-2l6.95-3.26c.23-.11.42-.3.53-.53l3.26-6.95c.4-.85,1.6-.85,2,0Z"/>
            <path class="cls-3" d="m251.15,129.85l3.26,6.95c.11.23.3.42.53.53l6.95,3.26c.85.4.85,1.6,0,2l-6.95,3.26c-.23.11-.42.3-.53.53l-3.26,6.95c-.4.85-1.6.85-2,0l-3.26-6.95c-.11-.23-.3-.42-.53-.53l-6.95-3.26c-.85-.4-.85-1.6,0-2l6.95-3.26c.23-.11.42-.3.53-.53l3.26-6.95c.4-.85,1.6-.85,2,0Z"/>
            <path class="cls-2" d="m105.49,213.53l1.63,3.47c.05.12.15.21.26.26l3.47,1.63c.42.2.42.8,0,1l-3.47,1.63c-.12.05-.21.15-.26.26l-1.63,3.47c-.2.42-.8.42-1,0l-1.63-3.47c-.05-.12-.15-.21-.26-.26l-3.47-1.63c-.42-.2-.42-.8,0-1l3.47-1.63c.12-.05.21-.15.26-.26l1.63-3.47c.2-.42.8-.42,1,0Z"/>
            <path class="cls-2" d="m1100.92,181.63l1.63,3.47c.05.12.15.21.26.26l3.47,1.63c.42.2.42.8,0,1l-3.47,1.63c-.12.05-.21.15-.26.26l-1.63,3.47c-.2.42-.8.42-1,0l-1.63-3.47c-.05-.12-.15-.21-.26-.26l-3.47-1.63c-.42-.2-.42-.8,0-1l3.47-1.63c.12-.05.21-.15.26-.26l1.63-3.47c.2-.42.8-.42,1,0Z"/>
            <path class="cls-2" d="m681.15,550.74l1.63,3.47c.05.12.15.21.26.26l3.47,1.63c.42.2.42.8,0,1l-3.47,1.63c-.12.05-.21.15-.26.26l-1.63,3.47c-.2.42-.8.42-1,0l-1.63-3.47c-.05-.12-.15-.21-.26-.26l-3.47-1.63c-.42-.2-.42-.8,0-1l3.47-1.63c.12-.05.21-.15.26-.26l1.63-3.47c.2-.42.8-.42,1,0Z"/>
            <path class="cls-6" d="m1107.43,156.28l2.7,5.74c.09.19.24.35.44.44l5.74,2.7c.7.33.7,1.32,0,1.65l-5.74,2.7c-.19.09-.35.24-.44.44l-2.7,5.74c-.33.7-1.32.7-1.65,0l-2.7-5.74c-.09-.19-.24-.35-.44-.44l-5.74-2.7c-.7-.33-.7-1.32,0-1.65l5.74-2.7c.19-.09.35-.24.44-.44l2.7-5.74c.33-.7,1.32-.7,1.65,0Z"/>
            <path class="cls-5" d="m578.57,34.3l1.03,2.19c.03.07.09.13.17.17l2.19,1.03c.27.13.27.5,0,.63l-2.19,1.03c-.07.03-.13.09-.17.17l-1.03,2.19c-.13.27-.5.27-.63,0l-1.03-2.19c-.03-.07-.09-.13-.17-.17l-2.19-1.03c-.27-.13-.27-.5,0-.63l2.19-1.03c.07-.03.13-.09.17-.17l1.03-2.19c.13-.27.5-.27.63,0Z"/>
            <path class="cls-3" d="m329.65,208.54l1.63,3.47c.05.12.15.21.26.26l3.47,1.63c.42.2.42.8,0,1l-3.47,1.63c-.12.05-.21.15-.26.26l-1.63,3.47c-.2.42-.8.42-1,0l-1.63-3.47c-.05-.12-.15-.21-.26-.26l-3.47-1.63c-.42-.2-.42-.8,0-1l3.47-1.63c.12-.05.21-.15.26-.26l1.63-3.47c.2-.42.8-.42,1,0Z"/>
            <path class="cls-3" d="m951.33,525.6l1.63,3.47c.05.12.15.21.26.26l3.47,1.63c.42.2.42.8,0,1l-3.47,1.63c-.12.05-.21.15-.26.26l-1.63,3.47c-.2.42-.8.42-1,0l-1.63-3.47c-.05-.12-.15-.21-.26-.26l-3.47-1.63c-.42-.2-.42-.8,0-1l3.47-1.63c.12-.05.21-.15.26-.26l1.63-3.47c.2-.42.8-.42,1,0Z"/>
            <path class="cls-1" d="m745.68,151.32l1.63,3.47c.05.12.15.21.26.26l3.47,1.63c.42.2.42.8,0,1l-3.47,1.63c-.12.05-.21.15-.26.26l-1.63,3.47c-.2.42-.8.42-1,0l-1.63-3.47c-.05-.12-.15-.21-.26-.26l-3.47-1.63c-.42-.2-.42-.8,0-1l3.47-1.63c.12-.05.21-.15.26-.26l1.63-3.47c.2-.42.8-.42,1,0Z"/>
          </g>
        </g>
      </g>
    </g>
  </g>
</svg>