<svg width="34" height="34" viewBox="0 0 34 34" fill="none" xmlns="http://www.w3.org/2000/svg">
<path fill-rule="evenodd" clip-rule="evenodd" d="M17.0006 0.33252C7.79565 0.33252 0.333984 7.79418 0.333984 16.9992C0.333984 26.2042 7.79565 33.6658 17.0006 33.6658C26.2056 33.6658 33.6673 26.2042 33.6673 16.9992C33.6673 7.79418 26.2056 0.33252 17.0006 0.33252ZM19.789 17.5942C19.668 17.697 19.5749 17.8286 19.5181 17.9768C19.4613 18.1251 19.4427 18.2852 19.464 18.4425L20.1723 22.6958C20.1922 22.8152 20.1858 22.9374 20.1536 23.054C20.1215 23.1706 20.0643 23.2788 19.9861 23.3711C19.9079 23.4634 19.8106 23.5376 19.7009 23.5885C19.5911 23.6394 19.4716 23.6658 19.3506 23.6658H14.6506C14.5297 23.6658 14.4102 23.6394 14.3004 23.5885C14.1907 23.5376 14.0934 23.4634 14.0152 23.3711C13.937 23.2788 13.8798 23.1706 13.8477 23.054C13.8155 22.9374 13.8091 22.8152 13.829 22.6958L14.5373 18.4425C14.5586 18.2852 14.54 18.1251 14.4832 17.9768C14.4264 17.8286 14.3333 17.697 14.2123 17.5942C13.5864 17.0302 13.1461 16.2897 12.9497 15.4703C12.7532 14.651 12.8097 13.7914 13.1118 13.0049C13.4139 12.2183 13.9474 11.5418 14.6418 11.0647C15.3362 10.5875 16.1589 10.3321 17.0015 10.3321C17.844 10.3321 18.6668 10.5875 19.3612 11.0647C20.0556 11.5418 20.589 12.2183 20.8911 13.0049C21.1932 13.7914 21.2498 14.651 21.0533 15.4703C20.8568 16.2897 20.4149 17.0302 19.789 17.5942Z" fill="#F5F5FA"/>
</svg>
