<svg width="88" height="40" viewBox="0 0 88 40" fill="none" xmlns="http://www.w3.org/2000/svg">
<path fill-rule="evenodd" clip-rule="evenodd" d="M23.3542 17.6918H22.6791L23.3228 15.84H26.7674L27.406 17.6868L26.7309 17.6956V18.2286H28.6254V17.6993H28.061L25.3543 10.0571H24.7522L22.0254 17.6968H21.4609V18.2286H23.3542V17.6918ZM24.9269 11.2389L25.0375 10.9082H25.069L25.1746 11.2389L26.5574 15.2517H23.5289L24.9269 11.2389Z" fill="white"/>
<path fill-rule="evenodd" clip-rule="evenodd" d="M37.0659 17.6365C37.511 17.2434 37.7335 16.6802 37.7335 15.9469C37.7365 15.628 37.6673 15.3125 37.5311 15.0241C37.3998 14.7473 37.2066 14.5043 36.9666 14.3138C36.7233 14.1219 36.4352 13.9947 36.1294 13.9442C36.5056 13.8509 36.837 13.6284 37.0659 13.3157C37.2966 12.9932 37.4162 12.6045 37.4066 12.2081C37.4066 11.489 37.1833 10.9514 36.7366 10.5952C36.2899 10.239 35.6672 10.0596 34.8684 10.0571H31.7935V10.6228H32.6533V17.6629H31.7935V18.2286H35.2858C36.0275 18.2286 36.6209 18.0312 37.0659 17.6365ZM33.2857 10.6216H34.8684C35.492 10.6216 35.9643 10.7515 36.2853 11.0113C36.6062 11.2711 36.7672 11.6613 36.768 12.1817C36.768 12.6846 36.6197 13.0663 36.323 13.327C36.0263 13.5876 35.603 13.7184 35.0532 13.7192H33.2857V10.6216ZM33.2857 14.2862H35.3864C35.7126 14.2758 36.0359 14.3494 36.3255 14.4999C36.5742 14.6334 36.7764 14.8395 36.905 15.0908C37.0391 15.3599 37.106 15.6575 37.0999 15.9582C37.0999 16.4963 36.939 16.9153 36.6171 17.2153C36.2953 17.5154 35.8515 17.665 35.2858 17.6641H33.2857V14.2862Z" fill="white"/>
<path fill-rule="evenodd" clip-rule="evenodd" d="M42.3949 14.4773L44.2202 14.4597C44.3246 14.4597 44.4264 14.4597 44.5257 14.4459L46.0657 18.2287H47.1431V17.6831H46.5145L45.1216 14.3428C45.2597 14.3063 45.3947 14.2588 45.5252 14.2007C45.8802 14.0484 46.1818 13.7936 46.3913 13.4691C46.606 13.1123 46.7129 12.701 46.6993 12.2848C46.7137 11.8591 46.6106 11.4377 46.4014 11.0667C46.1975 10.7309 45.8938 10.4672 45.5327 10.3124C45.0919 10.1308 44.6175 10.0451 44.141 10.0609H40.9014V10.6216H41.7613V17.6617H40.9014V18.2287H43.2535V17.6667H42.3949V14.4773ZM42.3949 10.6216H44.141C44.7847 10.6216 45.2666 10.7666 45.5868 11.0566C45.9069 11.3466 46.0666 11.7552 46.0657 12.2823C46.0749 12.5025 46.0369 12.722 45.9543 12.9262C45.8717 13.1305 45.7464 13.3147 45.5868 13.4666C45.2658 13.7658 44.7629 13.9154 44.0782 13.9154H42.3949V10.6216Z" fill="white"/>
<path fill-rule="evenodd" clip-rule="evenodd" d="M50.6318 10.6217H51.4917V17.6642H50.6318V18.2249H52.984V17.6642H52.1253V10.6217H52.984V10.0547H50.6318V10.6217Z" fill="white"/>
<path fill-rule="evenodd" clip-rule="evenodd" d="M63.9802 10.0547H63.1203H61.6268V10.6217H62.5244V17.0696L62.493 17.0809L58.103 10.0547H57.4644H56.6045V10.6217H57.4644V17.6642H56.6045V18.2249H58.9579V17.6642H58.0603V11.1836L58.093 11.1723L62.5294 18.2249H63.1203V10.6217H63.9802V10.0547Z" fill="white"/>
<path fill-rule="evenodd" clip-rule="evenodd" d="M71.8551 10.5739C71.3484 10.2255 70.7451 10.0448 70.1303 10.0572H67.1597V10.623H68.0196V17.663H67.1597V18.2287H70.1567C70.7699 18.2405 71.371 18.0579 71.874 17.707C72.3813 17.3437 72.7813 16.8503 73.0318 16.2789C73.3203 15.6265 73.4628 14.919 73.4492 14.2058V14.0713C73.4623 13.3574 73.3172 12.6495 73.0243 11.9983C72.768 11.4281 72.3644 10.9365 71.8551 10.5739ZM72.8156 14.2071C72.8251 14.811 72.7091 15.4104 72.4749 15.9671C72.2743 16.4552 71.9497 16.8825 71.5333 17.2067C71.1305 17.5127 70.6361 17.674 70.1303 17.6643H68.6532V10.6242H70.1303C70.634 10.614 71.127 10.7709 71.532 11.0705C71.9484 11.3891 72.2732 11.8119 72.4736 12.2962C72.708 12.8529 72.824 13.4523 72.8143 14.0562L72.8156 14.2071Z" fill="white"/>
<path fill-rule="evenodd" clip-rule="evenodd" d="M77.2506 17.1976C77.52 17.5593 77.8714 17.8518 78.276 18.0509C78.6806 18.25 79.1267 18.3501 79.5776 18.3429C80.0407 18.3502 80.499 18.2482 80.9152 18.045C81.3119 17.8447 81.6562 17.5545 81.921 17.1976C82.2097 16.8036 82.4228 16.3595 82.5495 15.8877C82.7012 15.3367 82.7748 14.7671 82.7683 14.1956V14.09C82.7748 13.5185 82.7012 12.9489 82.5495 12.3979C82.4199 11.9241 82.2034 11.4787 81.9109 11.0841C81.6437 10.7265 81.2973 10.4357 80.8989 10.2343C80.4873 10.0346 80.0351 9.93305 79.5776 9.93761C79.1256 9.92832 78.6779 10.0276 78.2721 10.2271C77.8663 10.4266 77.5143 10.7205 77.2456 11.0841C76.9517 11.4788 76.7327 11.9241 76.5994 12.3979C76.4437 12.9482 76.3679 13.5181 76.3744 14.09V14.1956C76.3681 14.7676 76.4447 15.3376 76.602 15.8877C76.7358 16.3605 76.9557 16.8046 77.2506 17.1976ZM77.013 14.0799C77.0005 13.446 77.1053 12.8151 77.3223 12.2193C77.4947 11.7306 77.7993 11.2993 78.2023 10.9735C78.5961 10.6715 79.0815 10.5136 79.5776 10.526C80.0824 10.5111 80.5772 10.6685 80.9806 10.9722C81.3854 11.2953 81.6905 11.7264 81.8606 12.2156C82.0685 12.8146 82.1672 13.446 82.1523 14.0799V14.1968C82.1647 14.8325 82.0647 15.4654 81.8568 16.0662C81.6916 16.5556 81.3903 16.9878 80.9881 17.3121C80.582 17.6155 80.0843 17.7712 79.5776 17.7533C79.0828 17.7652 78.5984 17.6093 78.2036 17.3108C77.7972 16.9868 77.4901 16.5551 77.3173 16.065C77.1002 15.4661 76.9954 14.8324 77.008 14.1956L77.013 14.0799Z" fill="white"/>
<path fill-rule="evenodd" clip-rule="evenodd" d="M27.8546 21.0234C27.2559 20.738 26.5979 20.5988 25.9349 20.6174H21.4355V22.2278H22.3948V28.8592L21.4355 28.8668V30.4609H25.5841V28.858L24.6249 28.8504V27.1206H25.9349C26.5977 27.1367 27.2551 26.9977 27.8546 26.7145C28.374 26.4666 28.8106 26.0736 29.1117 25.5831C29.4019 25.0616 29.5542 24.4746 29.5542 23.8778C29.5542 23.281 29.4019 22.694 29.1117 22.1725C28.8117 21.6767 28.3753 21.2778 27.8546 21.0234ZM26.967 24.9068C26.7319 25.1695 26.3887 25.3015 25.9349 25.3015H24.6262V22.4226H25.9349C26.3887 22.4226 26.7319 22.5597 26.967 22.8337C27.2102 23.13 27.336 23.5054 27.3203 23.8885C27.3359 24.2604 27.2096 24.6244 26.967 24.9068Z" fill="white"/>
<path fill-rule="evenodd" clip-rule="evenodd" d="M39.4958 21.902C39.1008 21.4586 38.6201 21.0998 38.0828 20.8472C37.5315 20.5978 36.9334 20.4688 36.3284 20.4688C35.7234 20.4688 35.1253 20.5978 34.5741 20.8472C34.0446 21.0985 33.5735 21.4577 33.1912 21.902C32.7907 22.3667 32.4822 22.9034 32.2823 23.4834C32.0638 24.1161 31.9553 24.7816 31.9617 25.4509V25.6055C31.9552 26.2781 32.0636 26.9469 32.2823 27.583C32.4807 28.1636 32.7883 28.7008 33.1887 29.1658C33.5745 29.6101 34.0495 29.9682 34.5829 30.2167C35.1346 30.4706 35.7356 30.5994 36.3429 30.5939C36.944 30.5981 37.5385 30.4693 38.084 30.2167C38.6229 29.9671 39.1047 29.6093 39.4996 29.1658C39.9102 28.7014 40.2293 28.1635 40.4399 27.5805C40.6695 26.9468 40.7836 26.277 40.7768 25.603V25.4484C40.7835 24.7777 40.6694 24.1112 40.4399 23.4809C40.2283 22.8994 39.9079 22.3636 39.4958 21.902ZM38.5592 25.6055C38.5698 26.1746 38.4813 26.7412 38.2977 27.28C38.1545 27.7145 37.8934 28.1005 37.5434 28.3951C37.1942 28.6531 36.7714 28.7923 36.3372 28.7923C35.903 28.7923 35.4802 28.6531 35.131 28.3951C34.7907 28.1003 34.5435 27.7129 34.4194 27.28C34.2553 26.7356 34.1768 26.169 34.1869 25.6005V25.432C34.1764 24.8671 34.2536 24.3039 34.4157 23.7625C34.5389 23.3351 34.783 22.9522 35.1184 22.66C35.4699 22.4039 35.8939 22.2665 36.3288 22.2676C36.7637 22.2687 37.187 22.4084 37.5372 22.6663C37.8852 22.9615 38.146 23.3462 38.2914 23.7789C38.4766 24.31 38.566 24.8697 38.5555 25.432L38.5592 25.6055Z" fill="white"/>
<path fill-rule="evenodd" clip-rule="evenodd" d="M50.0433 26.3195C50.4466 26.0459 50.7844 25.6866 51.0327 25.2672C51.3246 24.7814 51.4777 24.2249 51.4752 23.6581C51.4903 23.0856 51.3393 22.521 51.0402 22.0326C50.7367 21.5665 50.3037 21.199 49.7944 20.9753C49.1935 20.713 48.5428 20.5843 47.8873 20.5982H43.3364V21.9999L44.2969 22.2161V28.8476H43.3364V30.4517H47.485V28.8476H46.5246V26.8827L48.0432 26.9028L49.1947 30.4517H51.8888V28.8363H51.0088L50.0433 26.3195ZM46.5233 25.0623V22.4223H47.8835C48.3248 22.4223 48.663 22.548 48.9006 22.7995C49.1451 23.0759 49.2726 23.4365 49.2563 23.8052C49.2563 24.2108 49.1398 24.5209 48.9069 24.7355C48.6743 24.9492 48.3411 25.056 47.9099 25.056L46.5233 25.0623Z" fill="white"/>
<path fill-rule="evenodd" clip-rule="evenodd" d="M53.9604 23.5098H55.645L55.7029 22.4488H57.1322V28.8502L56.1655 28.8477V30.4518H60.3292V28.8477L59.3637 28.8502V22.4488H60.8056L60.8559 23.5098H62.5606V20.6108H53.9604V23.5098Z" fill="white"/>
<path fill-rule="evenodd" clip-rule="evenodd" d="M69.646 20.6172H67.2323L64.4741 28.9722H63.8267V30.4582H67.2901V28.9496H66.6854L66.9532 27.8823H69.9276L70.2067 28.9496H69.6033V30.4582H73.0604V28.9659H72.4117L69.646 20.6172ZM67.4209 26.2203L68.3009 23.2735L68.409 22.8964H68.4467L68.5485 23.2409L69.4512 26.2216L67.4209 26.2203Z" fill="white"/>
<path fill-rule="evenodd" clip-rule="evenodd" d="M82.1801 25.8455C81.6345 25.351 80.8383 24.9399 79.7915 24.6122C79.4398 24.4726 79.096 24.3136 78.7619 24.1358C78.5632 24.0364 78.3879 23.8958 78.2477 23.7234C78.1499 23.5864 78.0984 23.4217 78.1007 23.2533C78.0941 23.0582 78.1559 22.867 78.2754 22.7127C78.4012 22.5621 78.5667 22.4497 78.7531 22.3883C78.9749 22.3131 79.2079 22.2765 79.442 22.2802C79.7288 22.2787 80.0148 22.3103 80.2944 22.3745C80.5075 22.419 80.7144 22.4895 80.9104 22.5845L81.1706 23.902H82.8238V21.5297C82.3679 21.1634 81.8453 20.8889 81.285 20.7214C80.635 20.535 79.9592 20.4544 79.2836 20.4825C78.6777 20.4839 78.0786 20.6102 77.5236 20.8534C77.0432 21.062 76.6268 21.3943 76.3168 21.8163C76.0211 22.2339 75.8673 22.7354 75.878 23.247C75.8613 23.7489 75.9924 24.2446 76.2552 24.6726C76.5439 25.0926 76.9327 25.4339 77.3866 25.6657C78.0088 25.9952 78.6577 26.2715 79.3264 26.4917C79.6193 26.6051 79.9005 26.7466 80.1662 26.9141C80.3456 27.0243 80.4984 27.1728 80.6137 27.3491C80.7058 27.5069 80.7532 27.6868 80.7507 27.8695C80.7563 28.054 80.7049 28.2357 80.6036 28.39C80.4972 28.5418 80.346 28.6565 80.1712 28.7181C79.9429 28.7988 79.7017 28.8367 79.4596 28.83C79.0761 28.8343 78.6943 28.7783 78.3282 28.664C77.9846 28.5534 77.7453 28.4172 77.6104 28.2555L77.4205 26.9443H75.6982V29.4988C76.2209 29.8948 76.8138 30.1883 77.4457 30.3637C78.1036 30.526 78.7796 30.6033 79.4571 30.5938C80.0884 30.6067 80.7163 30.4978 81.3064 30.2732C81.8001 30.0869 82.2302 29.7632 82.5459 29.3404C82.8504 28.9069 83.0066 28.3865 82.991 27.857C82.9943 27.0096 82.724 26.3392 82.1801 25.8455Z" fill="white"/>
<path fill-rule="evenodd" clip-rule="evenodd" d="M17.2898 11.957C17.2904 10.8281 16.9799 9.72086 16.3924 8.75688C15.805 7.7929 14.9632 7.00947 13.9596 6.49262C12.9559 5.97578 11.8293 5.74551 10.7033 5.8271C9.5774 5.9087 8.49572 6.29901 7.5771 6.95517C6.65849 7.61132 5.93846 8.50794 5.4961 9.54656C5.05375 10.5852 4.90617 11.7256 5.06958 12.8426C5.23299 13.9596 5.70106 15.01 6.4224 15.8783C7.14373 16.7467 8.09043 17.3995 9.15851 17.765V32.4511C9.15851 32.9909 9.37294 33.5085 9.75464 33.8902C10.1363 34.2719 10.654 34.4864 11.1938 34.4864C11.7336 34.4864 12.2513 34.2719 12.633 33.8902C13.0147 33.5085 13.2292 32.9909 13.2292 32.4511V30.3981H16.0829V26.3099H13.2292V17.7261C14.417 17.2985 15.4441 16.5153 16.1707 15.4829C16.8974 14.4506 17.2881 13.2194 17.2898 11.957ZM11.1473 14.1331C10.717 14.1326 10.2965 14.0046 9.93901 13.7652C9.58148 13.5257 9.30295 13.1857 9.13863 12.788C8.97431 12.3903 8.93158 11.9529 9.01583 11.5309C9.10008 11.1089 9.30753 10.7214 9.61197 10.4174C9.91641 10.1133 10.3042 9.90626 10.7262 9.8225C11.1483 9.73873 11.5857 9.78197 11.9832 9.94675C12.3807 10.1115 12.7204 10.3905 12.9594 10.7483C13.1984 11.1061 13.326 11.5267 13.326 11.957C13.326 12.243 13.2696 12.5262 13.1601 12.7903C13.0506 13.0545 12.89 13.2945 12.6877 13.4966C12.4854 13.6987 12.2452 13.859 11.9809 13.9682C11.7165 14.0774 11.4333 14.1334 11.1473 14.1331Z" fill="white"/>
</svg>
