<?xml version="1.0" encoding="UTF-8"?>
<!DOCTYPE svg PUBLIC "-//W3C//DTD SVG 1.1//EN" "http://www.w3.org/Graphics/SVG/1.1/DTD/svg11.dtd">
<!-- Creator: CorelDRAW -->
<svg xmlns="http://www.w3.org/2000/svg" xml:space="preserve" width="331px" height="128px" version="1.1" style="shape-rendering:geometricPrecision; text-rendering:geometricPrecision; image-rendering:optimizeQuality; fill-rule:evenodd; clip-rule:evenodd"
viewBox="0 0 412.2 159.806"
 xmlns:xlink="http://www.w3.org/1999/xlink"
 xmlns:xodm="http://www.corel.com/coreldraw/odm/2003">
 <defs>
  <style type="text/css">
   <![CDATA[
    .fil0 {fill:#F2C454}
   ]]>
  </style>
 </defs>
 <g id="Layer_x0020_1">
  <metadata id="CorelCorpID_0Corel-Layer"/>
  <path class="fil0" d="M163.362 0l85.476 0c14.985,0 27.246,12.261 27.246,27.246l0 53.483 0 13.329 0 16.981c0,4.697 -3.843,8.54 -8.541,8.54l-1.929 0 0 23.144 1.929 0c4.698,0 8.541,3.844 8.541,8.54l0 0.002c0,4.698 -3.843,8.541 -8.541,8.541l-27.278 0 -46.013 0 -30.89 0c-14.985,0 -27.246,-12.261 -27.246,-27.246l0 -105.314c0,-14.986 12.26,-27.246 27.246,-27.246zm14.634 61.167l56.208 0c3.031,0 5.51,2.48 5.51,5.511 0,3.031 -2.479,5.51 -5.51,5.51l-56.208 0c-3.03,0 -5.51,-2.479 -5.51,-5.51 0,-3.031 2.48,-5.511 5.51,-5.511zm0 -18.736l56.208 0c3.031,0 5.51,2.48 5.51,5.511 0,3.031 -2.479,5.511 -5.51,5.511l-56.208 0c-3.03,0 -5.51,-2.48 -5.51,-5.511 0,-3.031 2.48,-5.511 5.51,-5.511zm66.325 77.148l-80.959 0c-6.365,0 -11.572,5.206 -11.572,11.572l0 0.001c0,6.364 5.207,11.571 11.572,11.571l30.89 0 46.827 0 3.242 0 0 -23.144z"/>
  <g id="_1977176964336">
   <path class="fil0" d="M334.831 25.06l58.668 0c10.286,0 18.701,8.415 18.701,18.701l0 36.709 0 9.149 0 11.655c0,3.223 -2.638,5.861 -5.862,5.861l-1.324 0 0 15.886 1.324 0c3.224,0 5.862,2.638 5.862,5.862l0 0.001c0,3.224 -2.638,5.862 -5.862,5.862l-18.723 0 -31.582 0 -21.202 0c-10.286,0 -18.701,-8.415 -18.701,-18.701l0 -72.284c0,-10.286 8.415,-18.701 18.701,-18.701zm10.045 41.983l38.578 0c2.081,0 3.783,1.702 3.783,3.782 0,2.081 -1.702,3.783 -3.783,3.783l-38.578 0c-2.081,0 -3.783,-1.702 -3.783,-3.783 0,-2.08 1.702,-3.782 3.783,-3.782zm0 -12.859l38.578 0c2.081,0 3.783,1.702 3.783,3.782 0,2.08 -1.702,3.782 -3.783,3.782l-38.578 0c-2.081,0 -3.783,-1.702 -3.783,-3.782 0,-2.08 1.702,-3.782 3.783,-3.782zm45.523 52.951l-55.568 0c-4.369,0 -7.943,3.574 -7.943,7.943l0 0.001c0,4.368 3.574,7.942 7.943,7.942l21.202 0 32.141 0 2.225 0 0 -15.886z"/>
   <path class="fil0" d="M18.701 25.06l58.668 0c10.285,0 18.701,8.415 18.701,18.701l0 36.709 0 9.149 0 11.655c0,3.223 -2.638,5.861 -5.862,5.861l-1.324 0 0 15.886 1.324 0c3.224,0 5.862,2.638 5.862,5.862l0 0.001c0,3.224 -2.638,5.862 -5.862,5.862l-18.723 0 -31.582 0 -21.202 0c-10.286,0 -18.701,-8.415 -18.701,-18.701l0 -72.284c0,-10.286 8.415,-18.701 18.701,-18.701zm10.044 41.983l38.579 0c2.081,0 3.783,1.702 3.783,3.782 0,2.081 -1.702,3.783 -3.783,3.783l-38.579 0c-2.08,0 -3.782,-1.702 -3.782,-3.783 0,-2.08 1.702,-3.782 3.782,-3.782zm0 -12.859l38.579 0c2.081,0 3.783,1.702 3.783,3.782 0,2.08 -1.702,3.782 -3.783,3.782l-38.579 0c-2.08,0 -3.782,-1.702 -3.782,-3.782 0,-2.08 1.702,-3.782 3.782,-3.782zm45.524 52.951l-55.568 0c-4.369,0 -7.943,3.574 -7.943,7.943l0 0.001c0,4.368 3.574,7.942 7.943,7.942l21.202 0 32.141 0 2.225 0 0 -15.886z"/>
  </g>
 </g>
</svg>
