<?xml version="1.0" encoding="UTF-8"?>
<!DOCTYPE svg PUBLIC "-//W3C//DTD SVG 1.1//EN" "http://www.w3.org/Graphics/SVG/1.1/DTD/svg11.dtd">
<!-- Creator: CorelDRAW -->
<svg xmlns="http://www.w3.org/2000/svg" xml:space="preserve" width="113px" height="128px" version="1.1" style="shape-rendering:geometricPrecision; text-rendering:geometricPrecision; image-rendering:optimizeQuality; fill-rule:evenodd; clip-rule:evenodd"
viewBox="0 0 36.228 41.362"
 xmlns:xlink="http://www.w3.org/1999/xlink"
 xmlns:xodm="http://www.corel.com/coreldraw/odm/2003">
 <defs>
  <style type="text/css">
   <![CDATA[
    .fil0 {fill:#F2C454}
   ]]>
  </style>
 </defs>
 <g id="Layer_x0020_1">
  <metadata id="CorelCorpID_0Corel-Layer"/>
  <path class="fil0" d="M7.052 0l22.124 0c3.878,0 7.052,3.173 7.052,7.052l0 13.843 0 3.45 0 4.395c0,1.216 -0.995,2.211 -2.211,2.211l-0.499 0 0 5.99 0.499 0c1.216,0 2.211,0.995 2.211,2.21l0 0.001c0,1.216 -0.995,2.21 -2.211,2.21l-7.06 0 -11.91 0 -7.995 0c-3.879,0 -7.052,-3.173 -7.052,-7.052l0 -27.258c0,-3.879 3.173,-7.052 7.052,-7.052zm3.788 15.832l14.548 0c0.784,0 1.426,0.642 1.426,1.426 0,0.785 -0.642,1.426 -1.426,1.426l-14.548 0c-0.785,0 -1.426,-0.641 -1.426,-1.426 0,-0.784 0.641,-1.426 1.426,-1.426zm0 -4.849l14.548 0c0.784,0 1.426,0.641 1.426,1.426 0,0.784 -0.642,1.426 -1.426,1.426l-14.548 0c-0.785,0 -1.426,-0.642 -1.426,-1.426 0,-0.785 0.641,-1.426 1.426,-1.426zm17.167 19.968l-20.955 0c-1.647,0 -2.995,1.347 -2.995,2.995l0 0c0,1.647 1.348,2.995 2.995,2.995l7.995 0 12.12 0 0.84 0 0 -5.99z"/>
 </g>
</svg>
