<?xml version="1.0" encoding="UTF-8"?>
<svg id="Camada_2" data-name="Camada 2" xmlns="http://www.w3.org/2000/svg" viewBox="0 0 276.33 430.91">
  <defs>
    <style>
      .cls-1 {
        fill: #2f345a;
      }

      .cls-1, .cls-2, .cls-3, .cls-4, .cls-5, .cls-6, .cls-7, .cls-8, .cls-9, .cls-10, .cls-11, .cls-12, .cls-13, .cls-14, .cls-15, .cls-16, .cls-17, .cls-18, .cls-19, .cls-20, .cls-21, .cls-22, .cls-23, .cls-24 {
        stroke-width: 0px;
      }

      .cls-1, .cls-2, .cls-4, .cls-5, .cls-9, .cls-10, .cls-12, .cls-13, .cls-14, .cls-15, .cls-16, .cls-17, .cls-18, .cls-19, .cls-20, .cls-22, .cls-23, .cls-24 {
        fill-rule: evenodd;
      }

      .cls-2 {
        fill: #06091a;
      }

      .cls-3, .cls-10 {
        fill: #496d8d;
      }

      .cls-4 {
        fill: #9494b2;
      }

      .cls-5 {
        fill: #bdc6d6;
      }

      .cls-6, .cls-23 {
        fill: #31415a;
      }

      .cls-7, .cls-24 {
        fill: #ffaf8f;
      }

      .cls-8, .cls-14 {
        fill: #4c2626;
      }

      .cls-9 {
        fill: #ed805f;
      }

      .cls-11 {
        fill: #c9d3e2;
      }

      .cls-12 {
        fill: #0f101c;
      }

      .cls-13 {
        fill: #f4c253;
      }

      .cls-15 {
        fill: #f5f9ff;
      }

      .cls-16 {
        fill: #537797;
      }

      .cls-17 {
        fill: #f99564;
      }

      .cls-18 {
        fill: #e26756;
      }

      .cls-19 {
        fill: #211f45;
      }

      .cls-20 {
        fill: #eaada4;
      }

      .cls-21 {
        fill: #799cb7;
      }

      .cls-22 {
        fill: #f9e3d3;
      }
    </style>
  </defs>
  <g id="Camada_1-2" data-name="Camada 1">
    <g id="Menina">
      <path class="cls-9" d="M137.79,4.94c-9.88-15.67-51.28,9.21-68.46,28.58-4.75,5.41-9.4,13.39-6.93,20.51.38,1.14.76,1.9,1.04,2.47,2.09,4.18-16.71,17.38-24.5,28.96-3.51,5.03-4.56,8.26.85,12.91-1.04,6.46-11.39,9.88-17.76,16.24-5.03,4.84-5.89,8.93-4.65,15.48,1.61,8.07-2.94,8.07-8.17,11.87-10.73,7.98-12.15,19.94-3.99,25.83,48.85,44.03,163.46,55.15,179.91,28.31s21.74-49.63,23.83-59.13c2.75-12.72-14.97-34.9-17.82-38.12-3.04-3.42-1.33-5.32.28-7.69,4.37-6.84-3.89-20.32-7.88-26.49-2.29-3.56,2.95-10.82-1.65-20.98-5.71-12.59-12.7-16.42-17.24-23.55s-14.34-20.7-26.87-15.19Z"/>
      <path class="cls-18" d="M194.48,141.29c2.75-12.72-14.97-34.9-17.82-38.12-3.04-3.42-1.33-5.32.28-7.69,4.37-6.84-19.75-17.09-23.73-23.26-2.29-3.56-20.46-15.12-26.09-15.12-9.28,0-58.5,21.1-66.29,32.68-3.51,5.03-4.56,8.26.85,12.91-1.04,6.46-11.39,9.88-17.76,16.24-5.03,4.84-5.89,8.93-4.65,15.48,1.61,8.07-2.94,8.07-8.17,11.87-6.53,4.85-16.38,16.05-21.26,25.41,51.08,40.77,159.35,50.44,175.31,24.42,4.84-7.89,8.71-15.43,11.82-22.39.61-14.63-3.8-26.46-2.49-32.42Z"/>
      <path class="cls-13" d="M216.13,146.9c33.23,0,60.2,26.97,60.2,60.2,0,25.73-16.14,47.76-38.84,56.31v84.13h29.91v42.73h-29.91v19.28c0,11.77-9.59,21.36-21.36,21.36h0c-11.77,0-21.36-9.59-21.36-21.36v-146.14c-22.69-8.55-38.84-30.58-38.84-56.31,0-33.23,26.97-60.2,60.2-60.2h0ZM216.13,185.74c11.77,0,21.36,9.59,21.36,21.36s-9.59,21.36-21.36,21.36-21.36-9.5-21.36-21.36,9.59-21.36,21.36-21.36Z"/>
      <path class="cls-20" d="M115.52,79.88c-.18,8.01-2.99,11.74-5.08,14.5,5.26,10.08,22.29,10.9,28.2,2.63-2.37-2.85-3.7-8.65-2.76-14.75-5.13,1.23-14.33,1.68-18.89-.5l-1.48-1.88Z"/>
      <polygon class="cls-23" points="149.43 101.75 142.51 101.07 148.39 93.14 151.91 95.94 149.43 101.75"/>
      <polygon class="cls-23" points="106.09 96.67 99.18 96.67 99.18 88.9 103.99 88.9 106.09 96.67"/>
      <path class="cls-5" d="M44.45,206.06c2.18,2.18,12.44-2.28,17-5.7,1.42-1.04,1.51-1.88.75-4.26-4.84-15.86-10.33-31.45-11.94-45.6,8.17-7.5,19.55-13.58,30.47-17.95.38-.09-.09,4.46.19,4.37,2.94-1.14,9.21.28,12.44-.57l54.63,16.17c5.61-4.65,5.6-13.27,9.82-14.31,4.91-1.21,10.94,2.61,15.03,4.5l-4.08,6.36c-2.85,1.99,23.57,7.03,24.9,5.8,3.8-5.13,4.46-4.37,16.92-7.41,10.16-.57,8.83-14.43,3.13-20.98-5.79-6.65-34.57-14.08-47.76-21.2-7.68-4.21-15.91-9.12-28.9-10.89-3.45,8.33-22.3,10.89-24.69-2.94-5.22.66-18.18,1.82-22.93,2.96-22.83,8.23-55.12,33.69-64.14,48.69-4.94,8.17-4.18,10.73-1.9,18.04,5.13,17,9.88,30.67,21.08,44.91h0Z"/>
      <path class="cls-4" d="M172.83,142.72c4.27-5.41,7.45-8.89,22.75-14.67-21.96,7.33-33.01,5.78-39.14,10.86l14.87,3.24c.47.09,1.04.28,1.52.57Z"/>
      <path class="cls-16" d="M94.29,89.67c2.87-.81,6.77-.91,9.71-.91-2.6,8.41-3.91,22.44-4.01,39.72,0,0,0,0,0,0,11.49-.57,35.88,1.53,55.92,12.02,0,0,0,0,0,.01-9.02,21.93-11.68,41.24-10.44,57.95,0,0,0,0,0,0,17.57,35.13,27.16,67.04,28.77,95.62.57,9.78-7.17,31.06-12.11,42.22-10.52,26.62-16.59,42-17.82,43.14-8.07,7.12-24.51,1.84-22.33-4.71,2.09-18.14,4.88-33.08,8.11-49.03,1.71-8.07,2.56-17.09,2.37-27.53,0,0,0,0,0,0-6.68-24.06-11.38-40.77-21.75-58.2-.81-1.36-2.86-1.11-3.31.41-2.86,9.68-5.76,23.53-11.5,55.52-4.84,33.33-12.21,95.79-15.35,96.74-7.79,2.56-13.53,2.31-21.12,1.26-6.55-.95-7.21-129.81.86-186.31.38-2.75.76-5.13,1.23-7.31,0,0,0,0,0,0,1.33-1.04,2.37-1.8,1.61-4.08l-.28-1.04s0,0,0,0c3.04-10.44,7.12-15.86,10.63-26.02,3.51-10.35,1.36-23.89,4.2-35.28,0,0,0,0,0,0,6.01-3.44,9.84-3.17,10.13-4.02.44-16.65,1.81-27.95,3.55-36.98.29-1.52,1.41-2.74,2.9-3.17Z"/>
      <path class="cls-23" d="M144.26,187.32c-20.85,2.46-49.69-2.42-73.8-11-.57-.2-1.2.06-1.46.61-1.6,3.42-3.29,6.93-4.82,10.48-.27.62.03,1.34.66,1.58,25.19,9.95,54.08,16.02,81.08,10.67,1-.2,1.66-1.16,1.51-2.17-.32-2.07-.8-5.54-.94-8.28-.06-1.15-1.08-2.02-2.22-1.88Z"/>
      <path class="cls-19" d="M55.94,394.73c.19,3.23,0,6.46-.47,9.4.47-.38.95-.66,1.42-.95,3.04-1.8,7.31-3.32,11.2-3.13,4.84.28,11.11,4.37,15,9.5-.76-5.13-1.04-10.73-.76-17.09-7.22,2.18-18.8,2.94-26.4,2.28h0Z"/>
      <path class="cls-1" d="M47.78,419.9c-.76-5.89,3.04-13.01,9.12-16.71,3.04-1.8,7.31-3.32,11.2-3.13,7.5.38,18.42,10.16,18.8,18.23-1.23-1.04-3.61-.66-5.32-.66-9.69,0-18.8-.09-27.35.57-1.33.09-3.61.28-5.22.95-.47.19-.85.47-1.23.76h0Z"/>
      <path class="cls-2" d="M81.58,417.62c-9.69,0-18.8-.09-27.35.57-1.33.09-3.61.28-5.22.95-.85.38-1.52.85-1.9,1.52-.66,1.33-.57,3.99,1.04,4.56,6.36,2.37,28.87,2.18,36.08,1.52,1.71-.19,2.75-2.09,3.23-4.08,1.42-6.08-3.04-5.03-5.89-5.03Z"/>
      <path class="cls-19" d="M152.42,396.92c-.76-.66-1.52-1.23-2.09-1.9-4.08-3.99-4.27-9.02-3.04-14.05.09-.47.19-1.04.38-1.52-.38.19-.76.28-1.14.38-1.71.57-3.61.85-5.7.95.76,9.5,5.51,13.39,11.58,16.14Z"/>
      <path class="cls-1" d="M120.99,376.22c-3.51,3.51-6.36,7.5-8.26,12.25-1.33,3.51-1.71,7.31-3.04,10.54.76.09,2.37-.19,4.08.85l52.42,25.92c2.18-2.85,4.46-6.65,5.22-9.69,1.04-3.8-2.09-6.74-5.03-9.02-4.37-3.51-10.07-6.93-13.96-10.16-6.08-2.75-10.82-6.65-11.58-16.14-6.93.19-15.29-1.8-19.85-4.56h0Z"/>
      <path class="cls-12" d="M166.57,425.97l-51.94-25.73c-2.28-1.33-4.27-1.99-4.75-1.61-.85.57-1.52,2.09-1.52,3.23,0,1.04.57,1.61,1.8,2.28,16.71,8.55,32.57,16.71,49.28,25.26,1.52.76,3.13,1.33,4.27.76.95-.38,1.8-1.23,2.56-2.18.85-1.14.66-1.8.28-1.99h0Z"/>
      <path class="cls-3" d="M72.4,212.97h22.57c2.17,0,3.92,1.76,3.92,3.92v19.94c0,7.75-6.29,14.04-14.04,14.04h-2.29c-7.77,0-14.08-6.31-14.08-14.08v-19.9c0-2.17,1.76-3.92,3.92-3.92Z" transform="translate(40.95 -10.91) rotate(9.86)"/>
      <path class="cls-22" d="M45.59,206.53c.09,6.08,1.61,10.82,4.65,14.34,4.46,5.22,7.79,6.84,10.07,13.29,2.37,6.84,7.31,3.23,11.11-1.04,4.46-5.03,5.89-8.36,4.65-15.38-1.42-8.45-8.45-11.3-13.86-17.95-.28.19-.47.38-.76.57-3.99,3.04-12.34,6.74-15.86,6.17h0Z"/>
      <path class="cls-17" d="M181.91,43.68c-5.71-12.59-12.7-16.42-17.24-23.55-4.55-7.13-14.34-20.7-26.87-15.19-9.88-15.67-51.28,9.21-68.46,28.58-4.75,5.41-9.4,13.39-6.93,20.51.38,1.14.76,1.9,1.04,2.47.34.67.13,1.58-.48,2.67,9.97-1.92,33.63-14.45,55.37-20.18,20.29-5.35,20.81-14.21,32.46,3.86,7.2,11.18,20.32,18.03,32.41,21.03-1.25-3.79,3.01-10.73-1.28-20.2Z"/>
      <path class="cls-24" d="M181.91,43.68c-5.71-12.59-12.7-16.42-17.24-23.55-4.53-7.1-14.27-20.6-26.74-15.24,5.23,7.58,8.84,17.13-3.66,19.61-21.52,4.27-46.38,25.33-46.38,25.33h0c9.48-3.91,20.17-8.13,30.44-10.84,20.29-5.35,20.81-14.21,32.46,3.86,7.2,11.18,20.32,18.03,32.41,21.03-1.25-3.79,3.01-10.73-1.28-20.2Z"/>
      <path class="cls-9" d="M181.91,43.68c-5.71-12.59-12.7-16.42-17.24-23.55-4.53-7.1-14.27-20.6-26.74-15.24,5.23,7.58,8.84,17.13-3.66,19.61-.05.01-.1.02-.16.03,0,0,12.17,2.64,19.58,14.14,7.2,11.18,32.51,14.48,28.22,5.02Z"/>
      <path class="cls-22" d="M191.25,154.78c-.09,4.75-1.33,8.74-3.61,11.96-4.18,5.7-7.41,7.6-9.21,14.43-1.99,7.12-7.22,3.8-11.49-.19-4.94-4.84-6.65-8.17-5.98-15.38.66-6.84,4.94-10.45,9.21-15.1,4.18,1.71,15.38,3.8,21.08,4.27h0Z"/>
      <path class="cls-22" d="M153.73,52.92c-.24-2.64-.86-5.35-2.01-8.08-4.62-11.04-15.56-15.88-17.45-20.34-3.05,9.7-25.82,16.99-25.82,16.99,0,0-1.36,1.53-2.56,5.63-4.62-.26-8.71,2.78-9.36,7.13-.68,4.62,2.79,8.97,7.76,9.71.09.01.18.02.28.03,1.66,11.12,8.92,19.68,19.48,20.78,9.06.94,18.3-.97,25-12.52.52-.89,1.02-1.84,1.49-2.84,4.67.33,8.84-2.73,9.49-7.12.62-4.16-2.13-8.08-6.3-9.36Z"/>
      <path class="cls-18" d="M118.61,42.05c1.8.11,3.35.95,3.32,1.91-.02.86-1.42,1.49-3.35,1.36-1.8-.11-3.85-1.04-3.84-1.9-.09-.98,2.07-1.48,3.87-1.36Z"/>
      <ellipse class="cls-8" cx="116.8" cy="53.18" rx="3.89" ry="2.47" transform="translate(51.03 163.38) rotate(-83.65)"/>
      <path class="cls-14" d="M125.67,73.08c-2.27-.58-3.91-2.44-4.13-4.64-.02-.24.24-.39.43-.24,2.22,1.67,4.78,2.56,9.18,1.94.22-.03.39.19.3.39-.77,1.64-3.52,3.05-5.78,2.56Z"/>
      <path class="cls-18" d="M141.94,46c-1.77-.35-3.48.08-3.69,1.01-.2.84,1,1.8,2.9,2.16,1.77.35,3.99-.03,4.19-.87.34-.92-1.63-1.95-3.4-2.3Z"/>
      <ellipse class="cls-8" cx="139.93" cy="57.1" rx="3.89" ry="2.47" transform="translate(63.28 187.35) rotate(-81.72)"/>
      <path class="cls-14" d="M126.71,64.62c-1.1-.28-1.9-1.18-2.01-2.26-.01-.12.12-.19.21-.12,1.08.81,2.32,1.24,4.46.94.11-.02.19.09.15.19-.37.79-1.71,1.48-2.81,1.24Z"/>
      <path class="cls-7" d="M83.01,32.54c.24-.42,5.96-10.25,20.37-10.54,11.13-.23,14.99-12.64,15.15-13.17,0,0-.24,17.86-15.05,18.17-11.47.24-20.48,5.54-20.48,5.54Z"/>
      <path class="cls-14" d="M104.6,55.2c-.29.97-.3,2.95-1.17,2.7s-2.27-2.67-1.98-3.63,1.23-1.54,2.1-1.28,1.35,1.25,1.06,2.22Z"/>
      <path class="cls-14" d="M152.59,60.29c-.14,1-.96,2.81-.06,2.94s3.17-1.48,3.32-2.48-.47-1.91-1.37-2.04-1.74.58-1.89,1.58Z"/>
      <path class="cls-15" d="M112.38,91.61c.51-.83,1-1.78,1.44-2.85-1.48.51-2.85,1.41-3.91,2.72-3.01,3.71-2.45,9.15,1.25,12.17,3.71,3.01,9.15,2.45,12.17-1.25.3-.37.56-.77.79-1.17-5.34-.1-10.51-2.88-11.75-9.61Z"/>
      <path class="cls-15" d="M137.56,91.29c-.52-.42-1.07-.77-1.65-1.05.26,1.54.66,2.95,1.18,4.16-.02,0-.04,0-.06,0-1.75,4.22-7.45,6.95-12.96,6.83.53,1.32,1.39,2.53,2.57,3.49,3.71,3.01,9.15,2.45,12.17-1.25,3.01-3.71,2.45-9.15-1.25-12.17Z"/>
      <path class="cls-16" d="M145.71,142.98l-10.49-6.09s6.78-12.38,8.36-18.55c3.34-13.04,4.89-25.19,4.89-25.19l7.5,3.52c1.24.58,1.98,1.87,1.85,3.24-.38,3.89-1.43,12.27-3.97,21.41-3.49,12.55-8.13,21.68-8.13,21.68Z"/>
      <rect class="cls-21" x="54.87" y="378.58" width="30.33" height="17.05" rx="2.58" ry="2.58"/>
      <rect class="cls-21" x="118.71" y="367.69" width="30.33" height="17.05" rx="2.58" ry="2.58" transform="translate(111.65 -22.49) rotate(16.4)"/>
      <circle class="cls-6" cx="117.14" cy="139.02" r="3.63"/>
      <circle class="cls-6" cx="115.69" cy="152.42" r="3.63"/>
      <circle class="cls-6" cx="113.51" cy="167.28" r="3.63"/>
      <rect class="cls-11" x="98.61" y="184.22" width="22.52" height="18.85" rx="2.39" ry="2.39" transform="translate(22.71 -11.23) rotate(6.52)"/>
      <path class="cls-3" d="M149.96,285.88c-6.25,5.87-13.72,8.15-16.88,8.89-.12-.06-.2-.1-.21-.1-.44-.25-.95-.26-1.38-.06.31,1.11.62,2.23.94,3.37.12-.02.25-.05.4-.08,1.37.49,3.67,1.07,6.89,1.07,2.67,0,5.96-.4,9.87-1.58.79-.24,1.24-1.08,1-1.87-.24-.79-1.08-1.25-1.87-1-3.81,1.15-6.94,1.48-9.39,1.44,3.77-1.48,8.44-3.92,12.68-7.89.6-.57.63-1.52.07-2.12-.56-.6-1.52-.63-2.12-.07Z"/>
      <path class="cls-3" d="M151.29,210.61l-20,7.6c-1.74.66-2.61,2.61-1.95,4.34l5.57,14.66c3.68,9.68,14.5,14.54,24.18,10.87l5.86-2.22c-3.56-11.34-8.1-23.09-13.66-35.24Z"/>
      <path class="cls-10" d="M152.61,149.3l-16.59-2.88c-.48-.08-.94.24-1.02.72l-2.16,12.41c-.9,5.21,2.58,10.16,7.79,11.07,2.39.41,4.71-.11,6.62-1.28,1.2-6.4,2.95-13.07,5.35-20.03Z"/>
    </g>
  </g>
</svg>