<?xml version="1.0" encoding="UTF-8"?>
<!DOCTYPE svg PUBLIC "-//W3C//DTD SVG 1.1//EN" "http://www.w3.org/Graphics/SVG/1.1/DTD/svg11.dtd">
<!-- Creator: CorelDRAW -->
<svg xmlns="http://www.w3.org/2000/svg" xml:space="preserve" width="460px" height="254px" version="1.1" style="shape-rendering:geometricPrecision; text-rendering:geometricPrecision; image-rendering:optimizeQuality; fill-rule:evenodd; clip-rule:evenodd"
viewBox="0 0 229.877 126.578"
 xmlns:xlink="http://www.w3.org/1999/xlink"
 xmlns:xodm="http://www.corel.com/coreldraw/odm/2003">
 <defs>
  <style type="text/css">
   <![CDATA[
    .fil0 {fill:#211F45;fill-rule:nonzero}
   ]]>
  </style>
 </defs>
 <g id="Layer_x0020_1">
  <metadata id="CorelCorpID_0Corel-Layer"/>
  <g>
   <path class="fil0" d="M229.877 1.331l-2.663 0 0 -1.331 2.663 0 0 1.331zm-1.331 0l0 0 0 0 0 0 1.331 0 -1.331 0zm1.3 1.384l-2.661 -0.105 0.006 -0.1 0.023 -1.179 2.663 0 -0.025 1.283 -0.006 0.101zm-2.661 -0.105l2.661 0.105 -0.052 1.33 -2.661 -0.105 0.052 -1.33zm1.13 8.22l-2.514 -0.875 0.437 -1.258 2.515 0.875 -0.438 1.258zm-1.062 2.533l-2.429 -1.091 0.315 -0.663 0.375 -0.884 0.287 -0.77 2.514 0.875 -0.327 0.879 -0.42 0.991 -0.315 0.663zm-2.429 -1.091l2.429 1.091 -0.545 1.214 -2.429 -1.091 0.545 -1.214zm-2.398 7.838l-1.943 -1.82 0.91 -0.972 1.943 1.82 -0.91 0.972zm-2.066 1.856l-1.731 -2.023 0.552 -0.456 0.659 -0.583 0.638 -0.609 0.005 -0.005 1.943 1.82 -0.075 0.077 -0.709 0.677 -0.73 0.647 -0.552 0.455zm-1.731 -2.023l1.731 2.023 -1.011 0.866 -1.732 -2.023 1.012 -0.866zm-5.326 6.286l-1.102 -2.424 1.212 -0.551 1.102 2.424 -1.212 0.551zm-1.295 0.54l-0.97 -2.48 0 0 0.783 -0.318 0.38 -0.166 1.102 2.424 -0.446 0.195 -0.849 0.345 0 0zm-1.24 0.485l-0.97 -2.48 1.24 -0.485 0.97 2.48 -1.24 0.485zm-0.97 -2.48l0.97 2.48 -1.24 0.484 -0.97 -2.48 1.24 -0.484zm-6.271 5.311l-0.97 -2.48 1.24 -0.485 0.969 2.48 -1.239 0.485zm-2.414 0.943l-0.97 -2.48 2.414 -0.943 0.97 2.48 -2.414 0.943zm-0.97 -2.48l0.97 2.48 -1.24 0.485 -0.97 -2.48 1.24 -0.485zm-6.272 5.311l-0.969 -2.48 1.24 -0.484 0.969 2.48 -1.24 0.484zm-2.413 0.944l-0.97 -2.48 2.414 -0.944 0.969 2.48 -2.413 0.944zm-0.97 -2.48l0.97 2.48 -1.24 0.485 -0.97 -2.48 1.24 -0.485zm-6.272 5.311l-0.969 -2.48 1.24 -0.485 0.969 2.48 -1.24 0.485zm-2.414 0.944l-0.969 -2.48 2.414 -0.944 0.969 2.48 -2.414 0.944zm-0.969 -2.48l0.969 2.48 -1.24 0.484 -0.969 -2.479 1.24 -0.485zm-6.272 5.311l-0.969 -2.48 1.24 -0.485 0.969 2.48 -1.24 0.485zm-2.414 0.943l-0.969 -2.479 2.414 -0.944 0.969 2.48 -2.414 0.943zm-0.969 -2.479l0.969 2.479 -1.24 0.485 -0.969 -2.48 1.24 -0.484zm-6.272 5.311l-0.97 -2.48 1.24 -0.485 0.97 2.48 -1.24 0.485zm-2.414 0.943l-0.969 -2.48 2.413 -0.943 0.97 2.48 -2.414 0.943zm-0.969 -2.48l0.969 2.48 -1.24 0.485 -0.969 -2.48 1.24 -0.485zm-6.272 5.311l-0.97 -2.48 1.24 -0.484 0.97 2.479 -1.24 0.485zm-2.414 0.944l-0.97 -2.48 2.414 -0.944 0.97 2.48 -2.414 0.944zm-0.97 -2.48l0.97 2.48 -1.24 0.485 -0.969 -2.48 1.239 -0.485zm-6.271 5.311l-0.97 -2.48 1.24 -0.485 0.97 2.48 -1.24 0.485zm-2.414 0.944l-0.97 -2.48 2.414 -0.944 0.97 2.48 -2.414 0.944zm-0.97 -2.48l0.97 2.48 -1.24 0.484 -0.97 -2.479 1.24 -0.485zm-6.271 5.311l-0.97 -2.48 1.24 -0.485 0.969 2.48 -1.239 0.485zm-2.414 0.943l-0.97 -2.48 2.414 -0.943 0.97 2.48 -2.414 0.943zm-0.97 -2.48l0.97 2.48 -1.24 0.485 -0.97 -2.48 1.24 -0.485zm-6.272 5.311l-0.969 -2.479 1.24 -0.485 0.969 2.48 -1.24 0.484zm-2.413 0.944l-0.97 -2.48 2.414 -0.943 0.969 2.479 -2.413 0.944zm-0.97 -2.48l0.97 2.48 -1.24 0.485 -0.97 -2.48 1.24 -0.485zm-6.272 5.311l-0.969 -2.48 1.24 -0.485 0.969 2.48 -1.24 0.485zm-2.414 0.944l-0.969 -2.48 2.414 -0.944 0.969 2.48 -2.414 0.944zm-0.969 -2.48l0.969 2.48 -1.24 0.485 -0.969 -2.48 1.24 -0.485zm-6.272 5.311l-0.97 -2.48 1.24 -0.485 0.97 2.48 -1.24 0.485zm-2.414 0.944l-0.969 -2.48 2.413 -0.944 0.97 2.48 -2.414 0.944zm-0.969 -2.48l0.969 2.48 -1.24 0.484 -0.969 -2.48 1.24 -0.484zm-6.272 5.311l-0.97 -2.48 1.24 -0.485 0.97 2.48 -1.24 0.485zm-2.414 0.943l-0.97 -2.48 2.414 -0.943 0.97 2.48 -2.414 0.943zm-0.97 -2.48l0.97 2.48 -1.24 0.485 -0.97 -2.48 1.24 -0.485zm-6.272 5.311l-0.969 -2.48 1.24 -0.484 0.969 2.48 -1.24 0.484zm-2.414 0.944l-0.969 -2.48 2.414 -0.944 0.969 2.48 -2.414 0.944zm-0.969 -2.48l0.969 2.48 -1.239 0.485 -0.97 -2.48 1.24 -0.485zm-6.272 5.311l-0.97 -2.48 1.24 -0.485 0.97 2.48 -1.24 0.485zm-2.414 0.944l-0.969 -2.48 2.413 -0.944 0.97 2.48 -2.414 0.944zm-0.969 -2.48l0.969 2.48 -1.24 0.484 -0.969 -2.479 1.24 -0.485zm-6.272 5.311l-0.97 -2.48 1.24 -0.485 0.97 2.48 -1.24 0.485zm-2.414 0.943l-0.97 -2.479 2.414 -0.944 0.97 2.48 -2.414 0.943zm-0.97 -2.479l0.97 2.479 -1.24 0.485 -0.97 -2.48 1.24 -0.484zm-6.272 5.31l-0.969 -2.479 1.24 -0.485 0.969 2.48 -1.24 0.484zm-2.414 0.944l-0.969 -2.48 2.414 -0.943 0.969 2.479 -2.414 0.944zm-0.969 -2.48l0.969 2.48 -1.239 0.485 -0.97 -2.48 1.24 -0.485zm-6.272 5.311l-0.97 -2.48 1.24 -0.484 0.97 2.479 -1.24 0.485zm-2.414 0.944l-0.969 -2.48 2.413 -0.944 0.97 2.48 -2.414 0.944zm-0.969 -2.48l0.969 2.48 -1.24 0.485 -0.969 -2.48 1.24 -0.485zm-6.272 5.311l-0.97 -2.48 1.24 -0.485 0.97 2.48 -1.24 0.485zm-2.414 0.944l-0.97 -2.48 2.414 -0.944 0.97 2.48 -2.414 0.944zm-0.97 -2.48l0.97 2.48 -1.24 0.484 -0.97 -2.479 1.24 -0.485zm-6.272 5.311l-0.969 -2.48 1.24 -0.485 0.969 2.48 -1.24 0.485zm-2.414 0.944l-0.969 -2.48 2.414 -0.944 0.969 2.48 -2.414 0.944zm-0.969 -2.48l0.969 2.48 -1.24 0.484 -0.969 -2.48 1.24 -0.484zm-6.272 5.311l-0.97 -2.48 1.24 -0.485 0.97 2.48 -1.24 0.485zm-2.208 -1.996l1.238 -0.484 0.97 2.48 -1.238 0.484 -0.97 -2.48zm-0.226 2.979l-1.036 -2.453 0.413 -0.181 0.849 -0.345 0.97 2.48 -0.783 0.318 -0.413 0.181zm-1.036 -2.453l1.036 2.453 -1.227 0.517 -1.035 -2.453 1.226 -0.517zm-5.395 6.329l-1.66 -2.082 1.042 -0.83 1.659 2.082 -1.041 0.83zm-1.853 1.66l-1.873 -1.892 0.039 -0.041 0.71 -0.677 0.73 -0.647 0.587 -0.485 1.66 2.082 -0.516 0.426 -0.658 0.584 -0.639 0.609 -0.04 0.041zm-1.873 -1.892l1.873 1.892 -0.946 0.937 -1.873 -1.893 0.946 -0.936zm-2.458 7.926l-2.379 -1.195 0.597 -1.189 2.38 1.194 -0.598 1.19zm-0.972 2.32l-2.474 -0.984 0.307 -0.825 0.42 -0.991 0.34 -0.715 2.379 1.195 -0.29 0.611 -0.375 0.884 -0.307 0.825zm-2.474 -0.984l2.474 0.984 -0.492 1.237 -2.474 -0.984 0.492 -1.237zm1.107 8.327l-2.654 -0.211 0.105 -1.327 2.655 0.211 -0.106 1.327zm-0.026 1.225l-2.663 0 0.025 -1.283 0.01 -0.153 2.654 0.211 -0.003 0.047 -0.023 1.178zm-1.332 0l0 0 0 0 0 0zm-1.331 0l2.663 0 0 1.332 -2.663 0 0 -1.332z"/>
  </g>
 </g>
</svg>
