<?xml version="1.0" encoding="UTF-8"?>
<!DOCTYPE svg PUBLIC "-//W3C//DTD SVG 1.1//EN" "http://www.w3.org/Graphics/SVG/1.1/DTD/svg11.dtd">
<!-- Creator: CorelDRAW -->
<svg xmlns="http://www.w3.org/2000/svg" xml:space="preserve" width="450px" height="254px" version="1.1" style="shape-rendering:geometricPrecision; text-rendering:geometricPrecision; image-rendering:optimizeQuality; fill-rule:evenodd; clip-rule:evenodd"
viewBox="0 0 219.875 123.826"
 xmlns:xlink="http://www.w3.org/1999/xlink"
 xmlns:xodm="http://www.corel.com/coreldraw/odm/2003">
 <defs>
  <style type="text/css">
   <![CDATA[
    .fil0 {fill:#211F45;fill-rule:nonzero}
   ]]>
  </style>
 </defs>
 <g id="Layer_x0020_1">
  <metadata id="CorelCorpID_0Corel-Layer"/>
  <g>
   <path class="fil0" d="M217.27 122.523l2.605 0 0 1.303 -2.605 0 0 -1.303zm1.303 0l0 0 0 0 0 0 -1.303 0 1.303 0zm-1.33 -1.251l2.603 -0.1 0.005 0.098 0.024 1.253 -2.605 0 -0.022 -1.153 -0.005 -0.098zm2.603 -0.1l-2.603 0.1 -0.05 -1.302 2.603 -0.1 0.05 1.302zm-3.907 -7.033l2.466 -0.839 0.42 1.233 -2.467 0.839 -0.419 -1.233zm-0.923 -2.257l2.385 -1.047 0.269 0.578 0.4 0.968 0.335 0.919 -2.466 0.839 -0.296 -0.814 -0.359 -0.866 -0.268 -0.577zm2.385 -1.047l-2.385 1.047 -0.523 -1.193 2.385 -1.046 0.523 1.192zm-6.508 -4.847l1.922 -1.759 0.879 0.961 -1.922 1.758 -0.879 -0.96zm-1.771 -1.629l1.716 -1.96 0.466 0.394 0.698 0.633 0.679 0.662 0.134 0.141 -1.922 1.759 -0.066 -0.07 -0.61 -0.595 -0.629 -0.57 -0.466 -0.394zm1.716 -1.96l-1.716 1.96 -0.98 -0.858 1.716 -1.96 0.98 0.858zm-7.894 -1.854l1.098 -2.363 1.181 0.55 -1.098 2.362 -1.181 -0.549zm-1.132 -0.484l0.967 -2.418 0 0 0.813 0.338 0.45 0.201 -1.098 2.363 -0.385 -0.173 -0.747 -0.311 0 0zm-1.21 -0.483l0.968 -2.419 1.209 0.484 -0.967 2.418 -1.21 -0.483zm0.968 -2.419l-0.968 2.419 -1.209 -0.484 0.967 -2.418 1.21 0.483zm-8.259 -0.498l0.967 -2.418 1.209 0.483 -0.967 2.419 -1.209 -0.484zm-2.431 -0.972l0.968 -2.418 2.43 0.972 -0.967 2.418 -2.431 -0.972zm0.968 -2.418l-0.968 2.418 -1.209 -0.483 0.967 -2.419 1.21 0.484zm-8.259 -0.498l0.967 -2.419 1.209 0.484 -0.967 2.418 -1.209 -0.483zm-2.431 -0.972l0.967 -2.419 2.431 0.972 -0.967 2.419 -2.431 -0.972zm0.967 -2.419l-0.967 2.419 -1.209 -0.484 0.967 -2.418 1.209 0.483zm-8.259 -0.498l0.968 -2.418 1.209 0.483 -0.967 2.419 -1.21 -0.484zm-2.43 -0.972l0.967 -2.418 2.431 0.972 -0.968 2.418 -2.43 -0.972zm0.967 -2.418l-0.967 2.418 -1.209 -0.483 0.967 -2.419 1.209 0.484zm-8.259 -0.498l0.968 -2.419 1.209 0.484 -0.967 2.418 -1.21 -0.483zm-2.43 -0.972l0.967 -2.419 2.431 0.972 -0.968 2.419 -2.43 -0.972zm0.967 -2.419l-0.967 2.419 -1.21 -0.484 0.968 -2.419 1.209 0.484zm-8.259 -0.498l0.967 -2.418 1.21 0.483 -0.968 2.419 -1.209 -0.484zm-2.431 -0.972l0.968 -2.418 2.43 0.972 -0.967 2.418 -2.431 -0.972zm0.968 -2.418l-0.968 2.418 -1.209 -0.483 0.967 -2.419 1.21 0.484zm-8.26 -0.498l0.968 -2.419 1.209 0.484 -0.967 2.418 -1.21 -0.483zm-2.43 -0.972l0.967 -2.419 2.431 0.972 -0.968 2.419 -2.43 -0.972zm0.967 -2.419l-0.967 2.419 -1.209 -0.484 0.967 -2.419 1.209 0.484zm-8.259 -0.498l0.967 -2.418 1.21 0.483 -0.968 2.419 -1.209 -0.484zm-2.431 -0.972l0.968 -2.418 2.43 0.972 -0.967 2.418 -2.431 -0.972zm0.968 -2.418l-0.968 2.418 -1.209 -0.484 0.967 -2.418 1.21 0.484zm-8.26 -0.498l0.968 -2.419 1.209 0.484 -0.967 2.418 -1.21 -0.483zm-2.43 -0.972l0.967 -2.419 2.431 0.972 -0.968 2.419 -2.43 -0.972zm0.967 -2.419l-0.967 2.419 -1.209 -0.484 0.967 -2.419 1.209 0.484zm-8.259 -0.498l0.967 -2.418 1.209 0.483 -0.967 2.419 -1.209 -0.484zm-2.431 -0.972l0.968 -2.419 2.43 0.973 -0.967 2.418 -2.431 -0.972zm0.968 -2.419l-0.968 2.419 -1.209 -0.484 0.967 -2.418 1.21 0.483zm-8.26 -0.497l0.968 -2.419 1.209 0.484 -0.967 2.418 -1.21 -0.483zm-2.43 -0.972l0.967 -2.419 2.431 0.972 -0.968 2.419 -2.43 -0.972zm0.967 -2.419l-0.967 2.419 -1.209 -0.484 0.967 -2.419 1.209 0.484zm-8.259 -0.498l0.967 -2.418 1.209 0.483 -0.967 2.419 -1.209 -0.484zm-2.431 -0.972l0.968 -2.419 2.43 0.973 -0.967 2.418 -2.431 -0.972zm0.968 -2.419l-0.968 2.419 -1.209 -0.484 0.967 -2.418 1.21 0.483zm-8.26 -0.497l0.968 -2.419 1.209 0.484 -0.967 2.418 -1.21 -0.483zm-2.43 -0.973l0.967 -2.418 2.431 0.972 -0.968 2.419 -2.43 -0.973zm0.967 -2.418l-0.967 2.418 -1.209 -0.483 0.967 -2.419 1.209 0.484zm-8.259 -0.498l0.967 -2.419 1.209 0.484 -0.967 2.419 -1.209 -0.484zm-2.431 -0.972l0.968 -2.419 2.43 0.972 -0.967 2.419 -2.431 -0.972zm0.968 -2.419l-0.968 2.419 -1.209 -0.484 0.967 -2.418 1.21 0.483zm-8.26 -0.497l0.968 -2.419 1.209 0.484 -0.967 2.418 -1.21 -0.483zm-2.43 -0.973l0.967 -2.418 2.431 0.972 -0.968 2.419 -2.43 -0.973zm0.967 -2.418l-0.967 2.418 -1.21 -0.483 0.968 -2.419 1.209 0.484zm-8.259 -0.498l0.967 -2.419 1.209 0.484 -0.967 2.419 -1.209 -0.484zm-2.431 -0.972l0.968 -2.419 2.43 0.972 -0.967 2.419 -2.431 -0.972zm0.968 -2.419l-0.968 2.419 -1.209 -0.484 0.967 -2.418 1.21 0.483zm-8.26 -0.498l0.968 -2.418 1.209 0.484 -0.967 2.418 -1.21 -0.484zm-2.43 -0.972l0.967 -2.418 2.431 0.972 -0.968 2.418 -2.43 -0.972zm0.967 -2.418l-0.967 2.418 -1.21 -0.483 0.968 -2.419 1.209 0.484zm-8.259 -0.498l0.967 -2.419 1.209 0.484 -0.967 2.419 -1.209 -0.484zm-2.431 -0.972l0.968 -2.419 2.43 0.972 -0.967 2.419 -2.431 -0.972zm0.968 -2.419l-0.968 2.419 -1.209 -0.484 0.967 -2.418 1.21 0.483zm-8.26 -0.498l0.968 -2.418 1.209 0.483 -0.967 2.419 -1.21 -0.484zm-2.43 -0.972l0.967 -2.418 2.431 0.972 -0.968 2.418 -2.43 -0.972zm0.967 -2.418l-0.967 2.418 -1.21 -0.483 0.968 -2.419 1.209 0.484zm-8.259 -0.499l0.967 -2.418 1.209 0.483 -0.967 2.419 -1.209 -0.484zm-0.243 -2.902l1.21 0.484 -0.967 2.418 -1.211 -0.484 0 0 0.968 -2.418zm-2.198 1.893l1.033 -2.391 0.417 0.187 0.748 0.311 -0.968 2.418 -0.813 -0.338 -0.417 -0.187zm1.033 -2.391l-1.033 2.391 -1.196 -0.516 1.033 -2.391 1.196 0.516zm-7.827 -1.811l1.646 -2.019 1.01 0.823 -1.646 2.019 -1.01 -0.823zm-1.977 -1.823l1.853 -1.831 0.1 0.106 0.61 0.595 0.629 0.57 0.431 0.364 -1.646 2.019 -0.5 -0.423 -0.699 -0.633 -0.679 -0.662 -0.099 -0.105zm1.853 -1.831l-1.853 1.831 -0.915 -0.927 1.853 -1.83 0.915 0.926zm-6.45 -4.761l2.338 -1.147 0.574 1.169 -2.339 1.147 -0.573 -1.169zm-1.008 -2.463l2.427 -0.943 0.316 0.866 0.358 0.866 0.245 0.527 -2.338 1.147 -0.292 -0.628 -0.401 -0.968 -0.315 -0.867zm2.427 -0.943l-2.427 0.943 -0.472 -1.213 2.427 -0.944 0.472 1.214zm-3.884 -6.93l2.597 -0.202 0.101 1.299 -2.597 0.202 -0.101 -1.299zm-0.033 -1.402l2.605 0 0.022 1.153 0.003 0.047 -2.597 0.202 -0.009 -0.149 -0.024 -1.253zm1.303 0l0 0 0 0 0 0zm1.302 0l-2.605 0 0 -1.303 2.605 0 0 1.303z"/>
  </g>
 </g>
</svg>
